<?xml version="1.0"?><svg viewBox="0 0 60 60" xmlns="http://www.w3.org/2000/svg"><title/><g id="colour"><path d="M34.26935,6.29132a4,4,0,1,0-6.5387,0A20.01524,20.01524,0,0,0,11,26V56a1.0004,1.0004,0,0,0,.55273.89453C15.79053,59.0127,21.96973,60,31,60s15.20947-.9873,19.44727-3.10547A1.0004,1.0004,0,0,0,51,56V26A20.01524,20.01524,0,0,0,34.26935,6.29132ZM49,26V51.36456a26.76758,26.76758,0,0,1-7,1.93732V24c0-7.267-1.69543-11.3562-4.52966-14.77734A18.01442,18.01442,0,0,1,49,26ZM28.16895,8.24512A17.95883,17.95883,0,0,1,30,8.05066V53.99323a78.47222,78.47222,0,0,1-8-.42883V24c0-8.01709,2.09277-11.67822,5.707-15.293ZM32,8.05066a17.95883,17.95883,0,0,1,1.83105.19446L34.293,8.707C37.90723,12.32178,40,15.98291,40,24V53.56439a78.47222,78.47222,0,0,1-8,.42883ZM29,4a2,2,0,1,1,2,2A2.002,2.002,0,0,1,29,4ZM24.52966,9.22266C21.69543,12.6438,20,16.733,20,24V53.30188a26.76758,26.76758,0,0,1-7-1.93732V26A18.01442,18.01442,0,0,1,24.52966,9.22266ZM31,58c-8.311,0-14.05957-.83789-18-2.63086V53.539C17.16357,55.21191,22.94525,56,31,56s13.83643-.78809,18-2.461v1.83014C45.05957,57.16211,39.311,58,31,58Z" fill="#e0e0e0"/><path d="M49,52v3.69152C44.88779,57.9552,38.83671,59,30,59s-14.88779-1.0448-19-3.30848V52c4.21429,2.20566,10.28573,3.23884,19,3.23884S44.78571,54.20566,49,52Z" fill="#616161"/></g><g data-name="Layer 1" id="Layer_1"><path d="M33.26935,6.29168a4,4,0,1,0-6.5387,0A20.01524,20.01524,0,0,0,10,26.00036v30a1.0004,1.0004,0,0,0,.55273.89453C14.79053,59.01305,20.96973,60.00036,30,60.00036s15.20947-.9873,19.44727-3.10547A1.0004,1.0004,0,0,0,50,56.00036v-30A20.01524,20.01524,0,0,0,33.26935,6.29168ZM48,26.00036V51.36492a26.76758,26.76758,0,0,1-7,1.93732V24.00036c0-7.267-1.69543-11.3562-4.52966-14.77734A18.01442,18.01442,0,0,1,48,26.00036ZM27.16895,8.24547A17.95883,17.95883,0,0,1,29,8.051V53.99358a78.47222,78.47222,0,0,1-8-.42883V24.00036c0-8.01709,2.09277-11.67822,5.707-15.293ZM31,8.051a17.95883,17.95883,0,0,1,1.83105.19446l.46191.46191C36.90723,12.32213,39,15.98327,39,24.00036V53.56475a78.47222,78.47222,0,0,1-8,.42883ZM28,4.00036a2,2,0,1,1,2,2A2.002,2.002,0,0,1,28,4.00036ZM23.52966,9.223C20.69544,12.64415,19,16.73333,19,24.00036V53.30224a26.76758,26.76758,0,0,1-7-1.93732V26.00036A18.01442,18.01442,0,0,1,23.52966,9.223ZM30,58.00036c-8.311,0-14.05957-.83789-18-2.63086V53.53936c4.16357,1.67291,9.94525,2.461,18,2.461s13.83643-.78809,18-2.461V55.3695C44.05957,57.16246,38.311,58.00036,30,58.00036Z"/></g></svg>