<?xml version="1.0"?><svg viewBox="0 0 60 60" xmlns="http://www.w3.org/2000/svg"><title/><g id="text"><text font-family="MyriadPro-Regular, Myriad Pro" font-size="9" transform="translate(3.73291 67.39014)"><tspan letter-spacing="0.00499em"/><tspan x="5.85889" y="0"/><tspan letter-spacing="-0.02599em" x="36.91699" y="0"/><tspan x="41.06592" y="0"/><tspan letter-spacing="-0.00998em" x="43.17188" y="0"/><tspan x="46.0249" y="0"/></text></g><g id="colour"><path d="M40,59H20c0-2.21094,1-5,4-5h4V42c-12,0-3-20-8-21H40c-5,1,4,21-8,21V54h4C39,54,40,56.78906,40,59Z" fill="#ff9f00"/><path d="M35.97981,21h-12c-3-11,6-8,5-20C34.97981,8,38.97981,12,35.97981,21Z" fill="#fbc12e"/><path d="M28.9798,1A18.39015,18.39015,0,0,1,28.965,4.49988C33.17908,9.58221,35.44507,13.60413,32.9798,21h3C38.9798,12,34.9798,8,28.9798,1Z" fill="#e2aa2d"/><path d="M32,21H28a8.23711,8.23711,0,0,1,2-6A8.23711,8.23711,0,0,1,32,21Z" fill="#ce3e17"/><path d="M40,21H37c-5,1,2,21-6,21h1C44,42,35,22,40,21Z" fill="#e28703"/><path d="M36,54H32c3,0,4,2.78906,4,5h4C40,56.78906,39,54,36,54Z" fill="#e28703"/><path d="M20,21h3c5,1-2,21,6,21H28C16,42,25,22,20,21Z" fill="#ffb15c"/><path d="M24,54h4c-3,0-4,2.78906-4,5H20C20,56.78906,21,54,24,54Z" fill="#ffb15c"/></g><g data-name="Layer 1" id="Layer_1"><path d="M36,53.00036H33v-2a1,1,0,0,0,0-2v-2a1,1,0,0,0,0-2v-2.0459A6.63927,6.63927,0,0,0,37.36621,40.974c2.67725-2.84375,2.37109-7.91943,2.10059-12.39746-.17139-2.83936-.38477-6.37256.72949-6.5957A1,1,0,0,0,40,20.00036H37.33978C39.5929,11.7921,35.97864,7.57293,30.62647,1.35778L29.75928.34948a1,1,0,0,0-1.75586.73389c.45361,5.44092-1.24609,7.50049-2.89014,9.49219-1.71185,2.0744-3.47351,4.22009-2.38068,9.4248H20a1,1,0,0,0-.19629,1.98047c1.11426.22314.90088,3.75635.72949,6.5957-.27051,4.478-.57666,9.55371,2.10059,12.39746A6.63927,6.63927,0,0,0,27,42.95446v2.0459a1,1,0,0,0,0,2v2a1,1,0,0,0,0,2v2H24c-3.4541,0-5,3.01367-5,6a1,1,0,0,0,1,1H40a1,1,0,0,0,1-1C41,56.014,39.4541,53.00036,36,53.00036ZM26.65576,11.8485a12.41788,12.41788,0,0,0,3.39355-8.09375c4.79645,5.60352,7.34357,9.15936,5.20795,16.24561H33a7.17078,7.17078,0,0,0-2.293-5.707.99964.99964,0,0,0-1.41406,0A7.17078,7.17078,0,0,0,27,20.00036H24.78064C23.705,15.43694,25.01386,13.83837,26.65576,11.8485ZM31,20.00036H29a5.412,5.412,0,0,1,1-3.499A5.412,5.412,0,0,1,31,20.00036Zm-3,21a5.07663,5.07663,0,0,1-3.91016-1.397c-2.085-2.21484-1.80615-6.83252-1.56055-10.90625.16016-2.64648.30664-5.07373-.2373-6.69678H37.708c-.54395,1.623-.39746,4.05029-.2373,6.69678.24561,4.07373.52441,8.69141-1.56055,10.90625A5.07663,5.07663,0,0,1,32,41.00036a1,1,0,0,0-1,1v3H29v-3A1,1,0,0,0,28,41.00036Zm1,6h2v2H29Zm-7.91895,11c.19287-1.21875.83105-3,2.91895-3h4a1,1,0,0,0,1-1v-3h2v3a1,1,0,0,0,1,1h4c2.08789,0,2.72607,1.78125,2.91895,3Z"/></g></svg>