<?xml version="1.0"?><svg viewBox="0 0 60 60" xmlns="http://www.w3.org/2000/svg"><title/><g id="colour"><circle cx="30" cy="20" fill="#27a8e2" r="19"/><path d="M42.652,5.85327A18.98407,18.98407,0,0,1,13.348,29.14661,18.99291,18.99291,0,1,0,42.652,5.85327Z" fill="#249cc6"/><path d="M44,46.03214A97.26227,97.26227,0,0,1,30,47a97.26227,97.26227,0,0,1-14-.96786c1.71169-3.60748,2.59927-6.07108.48606-12.03214a19.87565,19.87565,0,0,0,27.02788,0C41.40073,39.96106,42.27773,42.42467,44,46.03214Z" fill="#5d4038"/><path d="M42.45752,37.88062A23.16885,23.16885,0,0,1,43.51392,34a19.87571,19.87571,0,0,1-27.02783,0,23.0657,23.0657,0,0,1,1.05457,3.87915,19.7636,19.7636,0,0,0,24.91687.00146Z" fill="#49322e"/><path d="M50,48v7.15C50,56.756,42.38976,59,30,59s-20-2.244-20-3.85V48c2.89232,2.167,11.48719,3.3,20,3.3S47.10768,50.167,50,48Z" fill="#49322e"/><path d="M50,47.20187C50,48.78619,42.38976,51,30,51s-20-2.21381-20-3.79813c0-.51007,1.21025-1.62777,5.74356-2.57187h.02053c-.18461.40151-.37948.803-.58462,1.24792a.58034.58034,0,0,0,0,.48834.51445.51445,0,0,0,.37948.28216A90.53288,90.53288,0,0,0,30,47.74446a90.53288,90.53288,0,0,0,14.441-1.096.49708.49708,0,0,0,.37948-.28216.58034.58034,0,0,0,0-.48834c-.20514-.44489-.4-.84641-.58462-1.24792h.02053C48.78975,45.57411,50,46.69181,50,47.20187Z" fill="#5d4038"/><path d="M15.99951,24.78906a.99937.99937,0,0,1-.96484-.73926A15.53,15.53,0,0,1,14.5,20a15.69657,15.69657,0,0,1,.146-2.13672,1.00011,1.00011,0,0,1,1.98145.27344,13.63506,13.63506,0,0,0,.33789,5.3916.99864.99864,0,0,1-.96582,1.26074Z" fill="#45bce5"/><path d="M17.2959,14.00293a1.00057,1.00057,0,0,1-.87451-1.4834,15.61615,15.61615,0,0,1,9.30127-7.4209.99962.99962,0,1,1,.55078,1.92188,13.60144,13.60144,0,0,0-8.10107,6.46582A1.00018,1.00018,0,0,1,17.2959,14.00293Z" fill="#45bce5"/></g><g data-name="Layer 1" id="Layer_1"><path d="M44.19238,43.16246l-.457-.0896c-.99554-2.50171-.97528-4.6405,1.18359-9.679a.94153.94153,0,0,0,.03253-.15558,20.00005,20.00005,0,1,0-29.903,0,.94153.94153,0,0,0,.03253.15558c2.15881,5.03833,2.17926,7.17712,1.18372,9.67883l-.45764.08972C11.16309,44.07262,9,45.29235,9,47.00036v8c0,4.94336,20.14258,5,21,5s21-.05664,21-5v-8C51,45.29235,48.83692,44.07262,44.19238,43.16246ZM42.499,45.21911A99.64477,99.64477,0,0,1,30,46.00036a99.64477,99.64477,0,0,1-12.499-.78125,10.74625,10.74625,0,0,0,.72491-9.08783,19.84961,19.84961,0,0,0,23.54822,0A10.74625,10.74625,0,0,0,42.499,45.21911ZM30,2.00036a18,18,0,1,1-18,18A18.02062,18.02062,0,0,1,30,2.00036ZM15.215,45.33312c-.03711.07428-.07159.144-.10956.22a.99962.99962,0,0,0,.72559,1.43262A93.6753,93.6753,0,0,0,30,48.00036a93.6753,93.6753,0,0,0,14.16895-1.01465.99962.99962,0,0,0,.72559-1.43262c-.038-.07593-.07239-.14563-.1095-.21991,3.15137.715,4.12177,1.4574,4.22229,1.61932C48.56543,48.04625,41.83643,50.00036,30,50.00036c-11.80176,0-18.52264-1.94214-19-2.94287v-.02209C11.125,46.7752,12.1109,46.038,15.215,45.33312ZM30,58.00036c-11.83643,0-18.56543-1.9541-19-3V49.36272c5.10858,2.59888,18.30927,2.63763,19,2.63763s13.8952-.0387,19.0022-2.63867l.00513,5.59082C48.56543,56.04625,41.83643,58.00036,30,58.00036Z"/></g></svg>