<?xml version="1.0" encoding="UTF-8"?>
<svg version="1.1" xmlns="http://www.w3.org/2000/svg" width="1024" height="1024">
<path d="M0 0 C1.06951003 -0.00327219 2.13902007 -0.00654439 3.2409395 -0.00991574 C5.00566864 -0.0076903 5.00566864 -0.0076903 6.80604887 -0.00541991 C8.05984236 -0.00777214 9.31363586 -0.01012437 10.60542309 -0.01254788 C14.10323094 -0.01895782 17.60101584 -0.01910871 21.09882844 -0.01827047 C24.89764031 -0.01843978 28.6964439 -0.02434372 32.49525166 -0.02951133 C40.037748 -0.03884657 47.58023847 -0.04276093 55.12273987 -0.0450303 C64.1540081 -0.04798998 73.18526853 -0.05668602 82.21653267 -0.06544458 C104.04769971 -0.0862998 125.8788681 -0.09676053 147.71004278 -0.10557419 C158.03560745 -0.10977922 168.36117154 -0.11500141 178.68673572 -0.12025872 C214.02463165 -0.13814997 249.36252775 -0.15314642 284.70042753 -0.16057891 C286.91942584 -0.16105367 289.13842414 -0.16152955 291.35742244 -0.16200657 C293.00807693 -0.16236113 293.00807693 -0.16236113 294.69207797 -0.16272286 C300.26754131 -0.16392407 305.84300466 -0.16513952 311.418468 -0.16636485 C312.52494062 -0.166605 313.63141325 -0.16684515 314.77141535 -0.16709258 C350.64916422 -0.17498621 386.52688004 -0.19841884 422.40461449 -0.23092079 C460.32656251 -0.26521196 498.24849119 -0.2849294 536.17045498 -0.28822315 C540.33279213 -0.28864069 544.49512927 -0.28912026 548.65746641 -0.28964633 C549.68236899 -0.28976952 550.70727157 -0.28989271 551.7632318 -0.29001964 C568.26333779 -0.29235257 584.76340543 -0.30801779 601.26349775 -0.32848817 C617.8467804 -0.34873546 634.43001694 -0.35422867 651.01330966 -0.34471754 C660.86670351 -0.33949829 670.71994394 -0.3454001 680.57331574 -0.36725221 C687.15648194 -0.38074914 693.73954239 -0.37969309 700.32270962 -0.36685025 C704.07288801 -0.35994624 707.82277284 -0.35930897 711.57292515 -0.37641034 C715.61743962 -0.39470348 719.66127346 -0.38189265 723.70579863 -0.36618346 C724.86355539 -0.37640567 726.02131215 -0.38662787 727.21415246 -0.39715984 C741.42013984 -0.27661335 752.19157008 4.86862605 762.50928831 14.44130117 C772.47605348 24.97222286 775.21518119 36.78824768 775.17921019 50.90297109 C775.18767973 52.14164434 775.19614927 53.38031759 775.20487547 54.65652639 C775.2241458 58.02424523 775.23003162 61.39140768 775.22812796 64.75914341 C775.22800755 67.57985465 775.23659903 70.40051508 775.24490547 73.22121203 C775.26407161 79.87623456 775.26704654 86.53113166 775.26026487 93.18617421 C775.25361229 100.03698782 775.2765523 106.88726465 775.31357861 113.7379694 C775.34430657 119.63889993 775.35563282 125.5396579 775.35174179 131.44066679 C775.34967935 134.95703142 775.35507616 138.47297696 775.37963438 141.98926526 C775.40610199 145.90732863 775.39214992 149.82468996 775.37452269 153.74281484 C775.39441755 155.47684057 775.39441755 155.47684057 775.41471434 157.24589711 C775.34177093 164.22333076 774.59155489 167.98065941 769.75928831 173.12880117 C767.19343566 174.80980204 764.60579686 175.99066902 761.75928831 177.12880117 C760.83631956 177.50714101 759.91335081 177.88548085 758.96241331 178.27528554 C755.90506174 179.50495868 752.8353881 180.69687046 749.75928831 181.87880117 C748.69838987 182.2900121 747.63749144 182.70122304 746.54444456 183.12489492 C743.95071329 184.1296737 741.35566502 185.13088276 738.75928831 186.12880117 C739.54054075 186.27913808 740.32179319 186.429475 741.12671995 186.58436757 C744.69664387 187.2847471 748.258817 188.01890406 751.82178831 188.75380117 C753.0509094 188.9896996 754.2800305 189.22559804 755.54639769 189.46864492 C762.51406462 190.93354524 768.23211051 192.32793563 772.75928831 198.12880117 C774.45104004 201.04254013 775.01588329 203.16771508 775.04981565 206.52675039 C775.06895521 207.8186176 775.06895521 207.8186176 775.08848143 209.13658315 C775.0918199 210.52105138 775.0918199 210.52105138 775.09522581 211.93348867 C775.10188261 212.89022481 775.10853941 213.84696096 775.11539793 214.83268911 C775.12551473 216.85503896 775.13021525 218.87742213 775.12989378 220.89979726 C775.13426284 223.98580934 775.17058153 227.07038618 775.20850706 230.15614492 C775.21437632 232.12358796 775.21834498 234.09103777 775.22022581 236.05848867 C775.23459684 236.97741903 775.24896788 237.89634938 775.26377439 238.84312612 C775.21564036 245.62955198 773.47864847 249.07224035 768.92823362 254.18690664 C768.32076292 254.78390371 767.71329222 255.38090078 767.08741331 255.99598867 C766.42354612 256.65341054 765.75967894 257.31083242 765.07569456 257.98817617 C764.05282347 258.98591054 764.05282347 258.98591054 763.00928831 260.00380117 C762.3119055 260.69216054 761.61452269 261.38051992 760.89600706 262.08973867 C759.18825488 263.77409699 757.47599388 265.45357733 755.75928831 267.12880117 C756.72350706 267.64829335 757.68772581 268.16778554 758.68116331 268.70301992 C759.95751279 269.40688912 761.23353745 270.11134756 762.50928831 270.81630117 C763.14350706 271.15596914 763.77772581 271.4956371 764.43116331 271.84559804 C769.10179429 274.44850176 772.31324082 277.23670618 774.75928831 282.12880117 C774.85644239 285.08179917 774.89118112 288.01119095 774.88233614 290.96445066 C774.88348998 291.89536387 774.88464383 292.82627709 774.88583264 293.78539979 C774.88850331 296.94009639 774.88397344 300.09474309 774.87954283 303.24943715 C774.87997844 305.51980359 774.88085315 307.79016997 774.88213199 310.06053609 C774.88437897 316.32688934 774.88035291 322.59322566 774.87535393 328.85957676 C774.8714937 334.91466604 774.87231329 340.96975344 774.87303577 347.02484346 C774.87435139 359.41590421 774.87100176 371.80695964 774.86501837 384.19801885 C774.85910687 396.47156597 774.85525354 408.74511088 774.85416555 421.01865941 C774.85409681 421.78101266 774.85402807 422.54336591 774.85395725 423.32882078 C774.85361893 427.20022756 774.85331754 431.07163434 774.85303038 434.94304113 C774.85092844 462.38370614 774.84418682 489.82436826 774.83472776 517.26503164 C774.82554744 543.9277919 774.81846182 570.59055136 774.81421995 597.25331289 C774.81402266 598.48551443 774.81402266 598.48551443 774.81382139 599.74260894 C774.8125029 607.99191966 774.81122708 616.24123038 774.80998253 624.4905411 C774.80744613 641.29622052 774.80462488 658.10189989 774.80163145 674.90757924 C774.80149416 675.68032357 774.80135687 676.4530679 774.80121542 677.24922872 C774.79201051 728.8757541 774.77614406 780.50227779 774.75928831 832.12880117 C775.68255415 832.11991872 776.60581999 832.11103627 777.55706358 832.10188466 C786.30906842 832.02133721 795.06094661 831.9606342 803.81323862 831.92155248 C808.31161228 831.90078386 812.8096766 831.87266546 817.3078723 831.82704335 C821.65862914 831.7831988 826.0090907 831.75958368 830.36005163 831.74929219 C832.01005077 831.7419694 833.66003595 831.72767223 835.30990744 831.70588094 C855.39109496 831.45148921 871.10986265 837.29321723 885.88428831 851.11708242 C890.08981201 855.47867048 893.17963154 860.21843476 896.07178831 865.50380117 C896.39743773 866.09169423 896.72308714 866.6795873 897.05860472 867.28529531 C901.83203543 876.4585731 903.30156213 885.74999162 903.19678831 896.00380117 C903.18848997 897.05736806 903.18019163 898.11093496 903.17164183 899.19642812 C902.9983435 907.18603612 902.11665838 913.7945463 898.75928831 921.12880117 C898.04772581 922.73368398 898.04772581 922.73368398 897.32178831 924.37098867 C889.29925127 940.76319176 875.92644338 951.9514017 858.75928831 958.12880117 C851.61744652 960.21539302 844.74851811 960.41187873 837.34716654 960.38327676 C835.49834343 960.38808648 835.49834343 960.38808648 833.61217037 960.39299336 C830.19718484 960.39985439 826.78241775 960.39779681 823.36744453 960.39193764 C819.64979439 960.38776014 815.93216413 960.39517336 812.21451885 960.40109015 C805.70079988 960.40984949 799.18711235 960.4111652 792.67338896 960.40758687 C782.98710588 960.40227974 773.30085324 960.40837529 763.61457347 960.41666981 C745.30839171 960.43191458 727.00222379 960.43361438 708.69603702 960.43114678 C694.56019579 960.42931447 680.42435909 960.43107241 666.28851843 960.43537122 C664.25798492 960.43597362 662.22745141 960.43657482 660.1969179 960.43717482 C657.13713406 960.43808207 654.07735023 960.43899074 651.01756639 960.43990717 C622.56701572 960.44833749 594.11646676 960.45267186 565.66591501 960.44850045 C564.05692534 960.44826589 564.05692534 960.44826589 562.41543082 960.44802659 C556.97870903 960.4472208 551.54198724 960.44637503 546.10526546 960.44551329 C544.4856273 960.44525665 544.4856273 960.44525665 542.83326919 960.44499484 C540.64973442 960.44464818 538.46619965 960.44429965 536.28266489 960.44394925 C502.30538001 960.43859181 468.32812108 960.44652279 434.35084105 960.46498281 C396.18063821 960.48569654 358.01045145 960.49642672 319.84024268 960.49240732 C315.77066362 960.49201197 311.70108456 960.49165043 307.63150549 960.49130994 C306.62946582 960.49121921 305.62742615 960.49112848 304.59502164 960.491035 C289.46507488 960.48986879 274.33514434 960.4965191 259.20520163 960.50712186 C241.99892855 960.51916734 224.79269124 960.52074033 207.58641764 960.50833169 C197.95742618 960.50169842 188.32852021 960.50334495 178.69953558 960.51692021 C172.26612028 960.52515891 165.83276906 960.52247469 159.39935898 960.51094494 C155.73484061 960.50468279 152.07048915 960.50310243 148.40598037 960.51480827 C144.45354764 960.5273175 140.50136895 960.51650697 136.54893351 960.50353128 C135.41827551 960.51084062 134.28761751 960.51814997 133.12269714 960.52568081 C115.39830862 960.4049863 99.86892067 953.55632358 87.41553831 941.03895742 C78.48819111 931.25826086 70.65854783 917.54585422 70.62506723 903.87396604 C70.62060939 903.02672031 70.61615155 902.17947458 70.61155862 901.30655473 C70.61174298 900.38068933 70.61192734 899.45482393 70.61211729 898.500902 C70.6084406 897.51349802 70.60476391 896.52609405 70.60097581 895.50876874 C70.58993796 892.19086416 70.58609499 888.87299089 70.58228636 885.5550707 C70.57602194 883.18000865 70.56937515 880.80494758 70.56237364 878.42988759 C70.54314988 871.29761788 70.5325475 864.16534761 70.52364585 857.03305924 C70.51926051 853.67366445 70.51389446 850.31427123 70.50865698 846.95487767 C70.49164958 835.78742279 70.47715434 824.61996887 70.46990824 813.45250303 C70.46799839 810.55602817 70.46607804 807.65955333 70.4641223 804.76307851 C70.46363856 804.0431856 70.46315481 803.3232927 70.46265642 802.58158486 C70.45435193 790.91376326 70.42900582 779.24604404 70.39654162 767.57826717 C70.36347891 755.59771803 70.34546033 743.61722095 70.342264 731.63662595 C70.34009853 724.91046392 70.33134424 718.18445135 70.30580282 711.45833379 C70.28258137 705.13328428 70.27826511 698.80850409 70.28856421 692.48342305 C70.28906107 690.16062318 70.28269657 687.8378103 70.26900816 685.51505071 C70.25137878 682.34659761 70.25835176 679.17912052 70.27154112 676.01066762 C70.26057187 675.08926366 70.24960263 674.1678597 70.23830098 673.21853441 C70.29399015 667.68614282 71.06704753 664.51870422 74.75928831 660.12880117 C78.15928831 657.12880117 78.15928831 657.12880117 80.75928831 657.12880117 C80.75928831 656.46880117 80.75928831 655.80880117 80.75928831 655.12880117 C80.01678831 654.90192617 79.27428831 654.67505117 78.50928831 654.44130117 C74.66782268 652.60787439 72.64440419 649.89903293 70.75928831 646.12880117 C70.64643164 643.79191346 70.59986955 641.45174478 70.58228636 639.1121996 C70.57571516 638.39002752 70.56914396 637.66785543 70.56237364 636.92379934 C70.5426285 634.52859059 70.53097432 632.13344463 70.52100706 629.73817617 C70.51489377 628.51099748 70.51489377 628.51099748 70.50865698 627.2590273 C70.4877893 622.92737245 70.47349162 618.59574933 70.4641223 614.26405507 C70.45306689 609.79391905 70.41867939 605.32428206 70.3789506 600.85432225 C70.35277689 597.41415159 70.34442972 593.97409957 70.34084082 590.53383809 C70.3359754 588.88643958 70.3243626 587.23904635 70.30580282 585.5917452 C70.28139824 583.28175799 70.28237833 580.97305809 70.28931761 578.66298085 C70.28345137 577.34996999 70.27758512 576.03695913 70.27154112 574.68416005 C70.96326787 569.64192324 73.19981113 566.5980847 76.85303831 563.15614492 C81.19743703 560.12557645 85.71743561 557.41415503 90.25928831 554.69130117 C92.31969696 553.44866149 94.37958056 552.20515086 96.43897581 550.96083242 C97.4853723 550.32870839 98.53176878 549.69658437 99.60987425 549.04530507 C102.67501806 547.1800819 105.72405409 545.29154564 108.76710081 543.39051992 C109.71262815 542.80004873 110.6581555 542.20957753 111.63233519 541.60121328 C113.4298294 540.47618474 115.22548894 539.34821808 117.01905394 538.21693593 C117.8330969 537.70832021 118.64713987 537.19970449 119.48585081 536.67567617 C120.54666868 536.00810292 120.54666868 536.00810292 121.62891722 535.32704335 C123.93919297 534.02761253 126.28101505 533.06201493 128.75928831 532.12880117 C128.75928831 531.46880117 128.75928831 530.80880117 128.75928831 530.12880117 C128.02923079 529.99858571 127.29917326 529.86837026 126.54699278 529.73420888 C123.93782148 529.16757334 121.63694183 528.41654047 119.15601683 527.44227773 C118.27482679 527.09811818 117.39363676 526.75395864 116.485744 526.39937001 C115.54605268 526.02648854 114.60636137 525.65360708 113.63819456 525.26942617 C112.1719187 524.69004293 112.1719187 524.69004293 110.6760211 524.09895498 C108.61160843 523.28087116 106.54815674 522.46035874 104.48560667 521.63759023 C101.3409237 520.38641457 98.19001057 519.15194008 95.03858519 517.91786367 C93.02971465 517.11940772 91.02123766 516.31996077 89.01319456 515.51942617 C88.07552748 515.15464162 87.13786039 514.78985708 86.17177916 514.41401845 C80.41270246 512.09064705 75.12082837 509.77281412 71.61941111 504.36989504 C70.48607631 501.41693336 70.51107497 498.95953607 70.51319265 495.79571325 C70.50921056 494.48495911 70.50522846 493.17420497 70.50112569 491.82373101 C70.50683186 490.36558555 70.51272305 488.90744081 70.51877928 487.44929677 C70.51790742 485.9031685 70.51615681 484.35704051 70.51360095 482.8109141 C70.5091195 478.55572522 70.51714203 474.30063662 70.52715707 470.04546052 C70.53577779 465.45925757 70.53287239 460.87306048 70.53135252 456.2868517 C70.5303028 448.33875606 70.53658854 440.39069319 70.5478282 432.44260579 C70.56406838 420.95094829 70.56928968 409.45930667 70.57180418 397.96763894 C70.57618361 379.32408507 70.58949944 360.68054867 70.6084094 342.03700429 C70.62676178 323.92437497 70.64092143 305.8117504 70.64942503 287.69911367 C70.64995048 286.58302821 70.65047592 285.46694276 70.65101729 284.31703654 C70.65362733 278.71807646 70.65615476 273.11911634 70.6586411 267.5201562 C70.67938133 221.05635908 70.71461361 174.59258103 70.75928831 128.12880117 C69.38985075 128.13879392 69.38985075 128.13879392 67.99274778 128.14898854 C59.34342138 128.20936972 50.69416687 128.25491195 42.04467726 128.28423768 C37.59903215 128.29982171 33.15356278 128.3209254 28.70801878 128.35511953 C24.40915046 128.38797445 20.11045003 128.40570864 15.81146574 128.4134329 C14.18019806 128.41892991 12.54893843 128.42966272 10.91774321 128.44599134 C-8.47444323 128.63220011 -24.86870768 124.05047002 -39.15892458 110.47181875 C-52.96580178 96.59400366 -57.5216036 80.42744456 -57.55980349 61.40956289 C-57.46491118 53.25127365 -56.58719435 46.64467206 -53.24071169 39.12880117 C-52.87848513 38.25610585 -52.51625856 37.38341054 -52.14305544 36.48426992 C-45.22067429 21.20809999 -32.60033334 10.15944041 -17.23680544 3.90614492 C-11.39462132 1.73574629 -6.26605494 0.00501899 0 0 Z " fill="#D39C6B" transform="translate(89.24071168899536,31.87119883298874)"/>
<path d="M0 0 C1.06951003 -0.00327219 2.13902007 -0.00654439 3.2409395 -0.00991574 C5.00566864 -0.0076903 5.00566864 -0.0076903 6.80604887 -0.00541991 C8.05984236 -0.00777214 9.31363586 -0.01012437 10.60542309 -0.01254788 C14.10323094 -0.01895782 17.60101584 -0.01910871 21.09882844 -0.01827047 C24.89764031 -0.01843978 28.6964439 -0.02434372 32.49525166 -0.02951133 C40.037748 -0.03884657 47.58023847 -0.04276093 55.12273987 -0.0450303 C64.1540081 -0.04798998 73.18526853 -0.05668602 82.21653267 -0.06544458 C104.04769971 -0.0862998 125.8788681 -0.09676053 147.71004278 -0.10557419 C158.03560745 -0.10977922 168.36117154 -0.11500141 178.68673572 -0.12025872 C214.02463165 -0.13814997 249.36252775 -0.15314642 284.70042753 -0.16057891 C286.91942584 -0.16105367 289.13842414 -0.16152955 291.35742244 -0.16200657 C293.00807693 -0.16236113 293.00807693 -0.16236113 294.69207797 -0.16272286 C300.26754131 -0.16392407 305.84300466 -0.16513952 311.418468 -0.16636485 C312.52494062 -0.166605 313.63141325 -0.16684515 314.77141535 -0.16709258 C350.64916422 -0.17498621 386.52688004 -0.19841884 422.40461449 -0.23092079 C460.32656251 -0.26521196 498.24849119 -0.2849294 536.17045498 -0.28822315 C540.33279213 -0.28864069 544.49512927 -0.28912026 548.65746641 -0.28964633 C549.68236899 -0.28976952 550.70727157 -0.28989271 551.7632318 -0.29001964 C568.26333779 -0.29235257 584.76340543 -0.30801779 601.26349775 -0.32848817 C617.8467804 -0.34873546 634.43001694 -0.35422867 651.01330966 -0.34471754 C660.86670351 -0.33949829 670.71994394 -0.3454001 680.57331574 -0.36725221 C687.15648194 -0.38074914 693.73954239 -0.37969309 700.32270962 -0.36685025 C704.07288801 -0.35994624 707.82277284 -0.35930897 711.57292515 -0.37641034 C715.61743962 -0.39470348 719.66127346 -0.38189265 723.70579863 -0.36618346 C724.86355539 -0.37640567 726.02131215 -0.38662787 727.21415246 -0.39715984 C741.42013984 -0.27661335 752.19157008 4.86862605 762.50928831 14.44130117 C772.47605348 24.97222286 775.21518119 36.78824768 775.17921019 50.90297109 C775.18767973 52.14164434 775.19614927 53.38031759 775.20487547 54.65652639 C775.2241458 58.02424523 775.23003162 61.39140768 775.22812796 64.75914341 C775.22800755 67.57985465 775.23659903 70.40051508 775.24490547 73.22121203 C775.26407161 79.87623456 775.26704654 86.53113166 775.26026487 93.18617421 C775.25361229 100.03698782 775.2765523 106.88726465 775.31357861 113.7379694 C775.34430657 119.63889993 775.35563282 125.5396579 775.35174179 131.44066679 C775.34967935 134.95703142 775.35507616 138.47297696 775.37963438 141.98926526 C775.40610199 145.90732863 775.39214992 149.82468996 775.37452269 153.74281484 C775.39441755 155.47684057 775.39441755 155.47684057 775.41471434 157.24589711 C775.34177093 164.22333076 774.59155489 167.98065941 769.75928831 173.12880117 C767.19343566 174.80980204 764.60579686 175.99066902 761.75928831 177.12880117 C760.83631956 177.50714101 759.91335081 177.88548085 758.96241331 178.27528554 C755.90506174 179.50495868 752.8353881 180.69687046 749.75928831 181.87880117 C748.69838987 182.2900121 747.63749144 182.70122304 746.54444456 183.12489492 C743.95071329 184.1296737 741.35566502 185.13088276 738.75928831 186.12880117 C739.54054075 186.27913808 740.32179319 186.429475 741.12671995 186.58436757 C744.69664387 187.2847471 748.258817 188.01890406 751.82178831 188.75380117 C753.0509094 188.9896996 754.2800305 189.22559804 755.54639769 189.46864492 C762.51406462 190.93354524 768.23211051 192.32793563 772.75928831 198.12880117 C774.45104004 201.04254013 775.01588329 203.16771508 775.04981565 206.52675039 C775.06895521 207.8186176 775.06895521 207.8186176 775.08848143 209.13658315 C775.0918199 210.52105138 775.0918199 210.52105138 775.09522581 211.93348867 C775.10188261 212.89022481 775.10853941 213.84696096 775.11539793 214.83268911 C775.12551473 216.85503896 775.13021525 218.87742213 775.12989378 220.89979726 C775.13426284 223.98580934 775.17058153 227.07038618 775.20850706 230.15614492 C775.21437632 232.12358796 775.21834498 234.09103777 775.22022581 236.05848867 C775.23459684 236.97741903 775.24896788 237.89634938 775.26377439 238.84312612 C775.21564036 245.62955198 773.47864847 249.07224035 768.92823362 254.18690664 C768.32076292 254.78390371 767.71329222 255.38090078 767.08741331 255.99598867 C766.42354612 256.65341054 765.75967894 257.31083242 765.07569456 257.98817617 C764.05282347 258.98591054 764.05282347 258.98591054 763.00928831 260.00380117 C762.3119055 260.69216054 761.61452269 261.38051992 760.89600706 262.08973867 C759.18825488 263.77409699 757.47599388 265.45357733 755.75928831 267.12880117 C756.72350706 267.64829335 757.68772581 268.16778554 758.68116331 268.70301992 C759.95751279 269.40688912 761.23353745 270.11134756 762.50928831 270.81630117 C763.14350706 271.15596914 763.77772581 271.4956371 764.43116331 271.84559804 C769.10179429 274.44850176 772.31324082 277.23670618 774.75928831 282.12880117 C774.85644239 285.08179917 774.89118112 288.01119095 774.88233614 290.96445066 C774.88348998 291.89536387 774.88464383 292.82627709 774.88583264 293.78539979 C774.88850331 296.94009639 774.88397344 300.09474309 774.87954283 303.24943715 C774.87997844 305.51980359 774.88085315 307.79016997 774.88213199 310.06053609 C774.88437897 316.32688934 774.88035291 322.59322566 774.87535393 328.85957676 C774.8714937 334.91466604 774.87231329 340.96975344 774.87303577 347.02484346 C774.87435139 359.41590421 774.87100176 371.80695964 774.86501837 384.19801885 C774.85910687 396.47156597 774.85525354 408.74511088 774.85416555 421.01865941 C774.85409681 421.78101266 774.85402807 422.54336591 774.85395725 423.32882078 C774.85361893 427.20022756 774.85331754 431.07163434 774.85303038 434.94304113 C774.85092844 462.38370614 774.84418682 489.82436826 774.83472776 517.26503164 C774.82554744 543.9277919 774.81846182 570.59055136 774.81421995 597.25331289 C774.81402266 598.48551443 774.81402266 598.48551443 774.81382139 599.74260894 C774.8125029 607.99191966 774.81122708 616.24123038 774.80998253 624.4905411 C774.80744613 641.29622052 774.80462488 658.10189989 774.80163145 674.90757924 C774.80149416 675.68032357 774.80135687 676.4530679 774.80121542 677.24922872 C774.79201051 728.8757541 774.77614406 780.50227779 774.75928831 832.12880117 C775.68255415 832.11991872 776.60581999 832.11103627 777.55706358 832.10188466 C786.30906842 832.02133721 795.06094661 831.9606342 803.81323862 831.92155248 C808.31161228 831.90078386 812.8096766 831.87266546 817.3078723 831.82704335 C821.65862914 831.7831988 826.0090907 831.75958368 830.36005163 831.74929219 C832.01005077 831.7419694 833.66003595 831.72767223 835.30990744 831.70588094 C855.39109496 831.45148921 871.10986265 837.29321723 885.88428831 851.11708242 C890.08981201 855.47867048 893.17963154 860.21843476 896.07178831 865.50380117 C896.39743773 866.09169423 896.72308714 866.6795873 897.05860472 867.28529531 C901.83203543 876.4585731 903.30156213 885.74999162 903.19678831 896.00380117 C903.18848997 897.05736806 903.18019163 898.11093496 903.17164183 899.19642812 C902.9983435 907.18603612 902.11665838 913.7945463 898.75928831 921.12880117 C898.04772581 922.73368398 898.04772581 922.73368398 897.32178831 924.37098867 C889.29925127 940.76319176 875.92644338 951.9514017 858.75928831 958.12880117 C851.61744652 960.21539302 844.74851811 960.41187873 837.34716654 960.38327676 C835.49834343 960.38808648 835.49834343 960.38808648 833.61217037 960.39299336 C830.19718484 960.39985439 826.78241775 960.39779681 823.36744453 960.39193764 C819.64979439 960.38776014 815.93216413 960.39517336 812.21451885 960.40109015 C805.70079988 960.40984949 799.18711235 960.4111652 792.67338896 960.40758687 C782.98710588 960.40227974 773.30085324 960.40837529 763.61457347 960.41666981 C745.30839171 960.43191458 727.00222379 960.43361438 708.69603702 960.43114678 C694.56019579 960.42931447 680.42435909 960.43107241 666.28851843 960.43537122 C664.25798492 960.43597362 662.22745141 960.43657482 660.1969179 960.43717482 C657.13713406 960.43808207 654.07735023 960.43899074 651.01756639 960.43990717 C622.56701572 960.44833749 594.11646676 960.45267186 565.66591501 960.44850045 C564.05692534 960.44826589 564.05692534 960.44826589 562.41543082 960.44802659 C556.97870903 960.4472208 551.54198724 960.44637503 546.10526546 960.44551329 C544.4856273 960.44525665 544.4856273 960.44525665 542.83326919 960.44499484 C540.64973442 960.44464818 538.46619965 960.44429965 536.28266489 960.44394925 C502.30538001 960.43859181 468.32812108 960.44652279 434.35084105 960.46498281 C396.18063821 960.48569654 358.01045145 960.49642672 319.84024268 960.49240732 C315.77066362 960.49201197 311.70108456 960.49165043 307.63150549 960.49130994 C306.62946582 960.49121921 305.62742615 960.49112848 304.59502164 960.491035 C289.46507488 960.48986879 274.33514434 960.4965191 259.20520163 960.50712186 C241.99892855 960.51916734 224.79269124 960.52074033 207.58641764 960.50833169 C197.95742618 960.50169842 188.32852021 960.50334495 178.69953558 960.51692021 C172.26612028 960.52515891 165.83276906 960.52247469 159.39935898 960.51094494 C155.73484061 960.50468279 152.07048915 960.50310243 148.40598037 960.51480827 C144.45354764 960.5273175 140.50136895 960.51650697 136.54893351 960.50353128 C135.41827551 960.51084062 134.28761751 960.51814997 133.12269714 960.52568081 C115.39830862 960.4049863 99.86892067 953.55632358 87.41553831 941.03895742 C78.48819111 931.25826086 70.65854783 917.54585422 70.62506723 903.87396604 C70.62060939 903.02672031 70.61615155 902.17947458 70.61155862 901.30655473 C70.61174298 900.38068933 70.61192734 899.45482393 70.61211729 898.500902 C70.6084406 897.51349802 70.60476391 896.52609405 70.60097581 895.50876874 C70.58993796 892.19086416 70.58609499 888.87299089 70.58228636 885.5550707 C70.57602194 883.18000865 70.56937515 880.80494758 70.56237364 878.42988759 C70.54314988 871.29761788 70.5325475 864.16534761 70.52364585 857.03305924 C70.51926051 853.67366445 70.51389446 850.31427123 70.50865698 846.95487767 C70.49164958 835.78742279 70.47715434 824.61996887 70.46990824 813.45250303 C70.46799839 810.55602817 70.46607804 807.65955333 70.4641223 804.76307851 C70.46363856 804.0431856 70.46315481 803.3232927 70.46265642 802.58158486 C70.45435193 790.91376326 70.42900582 779.24604404 70.39654162 767.57826717 C70.36347891 755.59771803 70.34546033 743.61722095 70.342264 731.63662595 C70.34009853 724.91046392 70.33134424 718.18445135 70.30580282 711.45833379 C70.28258137 705.13328428 70.27826511 698.80850409 70.28856421 692.48342305 C70.28906107 690.16062318 70.28269657 687.8378103 70.26900816 685.51505071 C70.25137878 682.34659761 70.25835176 679.17912052 70.27154112 676.01066762 C70.26057187 675.08926366 70.24960263 674.1678597 70.23830098 673.21853441 C70.29399015 667.68614282 71.06704753 664.51870422 74.75928831 660.12880117 C78.15928831 657.12880117 78.15928831 657.12880117 80.75928831 657.12880117 C80.75928831 656.46880117 80.75928831 655.80880117 80.75928831 655.12880117 C80.01678831 654.90192617 79.27428831 654.67505117 78.50928831 654.44130117 C74.66782268 652.60787439 72.64440419 649.89903293 70.75928831 646.12880117 C70.64643164 643.79191346 70.59986955 641.45174478 70.58228636 639.1121996 C70.57571516 638.39002752 70.56914396 637.66785543 70.56237364 636.92379934 C70.5426285 634.52859059 70.53097432 632.13344463 70.52100706 629.73817617 C70.51489377 628.51099748 70.51489377 628.51099748 70.50865698 627.2590273 C70.4877893 622.92737245 70.47349162 618.59574933 70.4641223 614.26405507 C70.45306689 609.79391905 70.41867939 605.32428206 70.3789506 600.85432225 C70.35277689 597.41415159 70.34442972 593.97409957 70.34084082 590.53383809 C70.3359754 588.88643958 70.3243626 587.23904635 70.30580282 585.5917452 C70.28139824 583.28175799 70.28237833 580.97305809 70.28931761 578.66298085 C70.28345137 577.34996999 70.27758512 576.03695913 70.27154112 574.68416005 C70.96326787 569.64192324 73.19981113 566.5980847 76.85303831 563.15614492 C81.19743703 560.12557645 85.71743561 557.41415503 90.25928831 554.69130117 C92.31969696 553.44866149 94.37958056 552.20515086 96.43897581 550.96083242 C97.4853723 550.32870839 98.53176878 549.69658437 99.60987425 549.04530507 C102.67501806 547.1800819 105.72405409 545.29154564 108.76710081 543.39051992 C109.71262815 542.80004873 110.6581555 542.20957753 111.63233519 541.60121328 C113.4298294 540.47618474 115.22548894 539.34821808 117.01905394 538.21693593 C117.8330969 537.70832021 118.64713987 537.19970449 119.48585081 536.67567617 C120.54666868 536.00810292 120.54666868 536.00810292 121.62891722 535.32704335 C123.93919297 534.02761253 126.28101505 533.06201493 128.75928831 532.12880117 C128.75928831 531.46880117 128.75928831 530.80880117 128.75928831 530.12880117 C128.02923079 529.99858571 127.29917326 529.86837026 126.54699278 529.73420888 C123.93782148 529.16757334 121.63694183 528.41654047 119.15601683 527.44227773 C118.27482679 527.09811818 117.39363676 526.75395864 116.485744 526.39937001 C115.54605268 526.02648854 114.60636137 525.65360708 113.63819456 525.26942617 C112.1719187 524.69004293 112.1719187 524.69004293 110.6760211 524.09895498 C108.61160843 523.28087116 106.54815674 522.46035874 104.48560667 521.63759023 C101.3409237 520.38641457 98.19001057 519.15194008 95.03858519 517.91786367 C93.02971465 517.11940772 91.02123766 516.31996077 89.01319456 515.51942617 C88.07552748 515.15464162 87.13786039 514.78985708 86.17177916 514.41401845 C80.41270246 512.09064705 75.12082837 509.77281412 71.61941111 504.36989504 C70.48607631 501.41693336 70.51107497 498.95953607 70.51319265 495.79571325 C70.50921056 494.48495911 70.50522846 493.17420497 70.50112569 491.82373101 C70.50683186 490.36558555 70.51272305 488.90744081 70.51877928 487.44929677 C70.51790742 485.9031685 70.51615681 484.35704051 70.51360095 482.8109141 C70.5091195 478.55572522 70.51714203 474.30063662 70.52715707 470.04546052 C70.53577779 465.45925757 70.53287239 460.87306048 70.53135252 456.2868517 C70.5303028 448.33875606 70.53658854 440.39069319 70.5478282 432.44260579 C70.56406838 420.95094829 70.56928968 409.45930667 70.57180418 397.96763894 C70.57618361 379.32408507 70.58949944 360.68054867 70.6084094 342.03700429 C70.62676178 323.92437497 70.64092143 305.8117504 70.64942503 287.69911367 C70.64995048 286.58302821 70.65047592 285.46694276 70.65101729 284.31703654 C70.65362733 278.71807646 70.65615476 273.11911634 70.6586411 267.5201562 C70.67938133 221.05635908 70.71461361 174.59258103 70.75928831 128.12880117 C69.38985075 128.13879392 69.38985075 128.13879392 67.99274778 128.14898854 C59.34342138 128.20936972 50.69416687 128.25491195 42.04467726 128.28423768 C37.59903215 128.29982171 33.15356278 128.3209254 28.70801878 128.35511953 C24.40915046 128.38797445 20.11045003 128.40570864 15.81146574 128.4134329 C14.18019806 128.41892991 12.54893843 128.42966272 10.91774321 128.44599134 C-8.47444323 128.63220011 -24.86870768 124.05047002 -39.15892458 110.47181875 C-52.96580178 96.59400366 -57.5216036 80.42744456 -57.55980349 61.40956289 C-57.46491118 53.25127365 -56.58719435 46.64467206 -53.24071169 39.12880117 C-52.87848513 38.25610585 -52.51625856 37.38341054 -52.14305544 36.48426992 C-45.22067429 21.20809999 -32.60033334 10.15944041 -17.23680544 3.90614492 C-11.39462132 1.73574629 -6.26605494 0.00501899 0 0 Z M78.75928831 32.12880117 C80.8115557 35.2105631 82.86768603 38.28897382 84.94288206 41.35536367 C95.13848232 56.61414591 101.85721657 73.65521774 101.89795351 92.23708421 C101.90221684 93.26222379 101.90221684 93.26222379 101.90656629 94.30807325 C101.91486693 96.59077111 101.91617784 98.8734179 101.91750669 101.15612966 C101.9220752 102.8120924 101.92707565 104.468054 101.93247026 106.12401426 C101.94602787 110.66882583 101.95346284 115.21362993 101.95989692 119.75845641 C101.96791132 124.66159188 101.98160552 129.56471188 101.99460936 134.4678362 C102.01635735 142.96097943 102.03450798 151.45412424 102.05021429 159.9472807 C102.07292818 172.22695524 102.10106891 184.50661262 102.13053357 196.78627259 C102.17819084 216.7092791 102.22146008 236.63229262 102.26197386 256.55531484 C102.30133827 275.9085105 102.34276677 295.26169992 102.38697386 314.61488515 C102.38969813 315.80784432 102.3924224 317.00080348 102.39522923 318.22991293 C102.40890886 324.21464707 102.4226291 330.19938111 102.43636954 336.18411511 C102.55030502 385.83233079 102.65712086 435.48055997 102.75928831 485.12880117 C104.02117599 485.76709941 105.28392853 486.40368803 106.54703569 487.03956968 C107.2501363 487.39425608 107.95323691 487.74894248 108.6776436 488.11437696 C111.57868557 489.5281087 114.54668927 490.7082202 117.55494261 491.87440664 C118.18206144 492.11894582 118.80918028 492.363485 119.45530272 492.61543447 C120.79964907 493.13954968 122.14457553 493.66217904 123.49003744 494.18342382 C126.36006393 495.29740351 129.22475393 496.42481047 132.08987474 497.5513342 C137.40576459 499.64128468 142.72365596 501.7257252 148.05054808 503.78749257 C151.77458436 505.22947155 155.49158736 506.68838994 159.20457983 508.15855962 C160.61304536 508.7125898 162.02398474 509.26037552 163.43742514 509.80158788 C165.41560331 510.55986415 167.38407159 511.33952616 169.35181761 512.12440664 C170.47130293 512.56090535 171.59078825 512.99740407 172.74419737 513.44713002 C176.9291866 515.78131356 179.59146118 518.7931469 181.75928831 523.12880117 C182.41139122 528.37769511 182.19070068 532.98967147 179.184093 537.53700429 C173.2441054 544.1731796 163.63783251 548.2378122 156.00092649 552.73204213 C152.4648285 554.81372217 148.9342492 556.90471395 145.40381956 558.99598867 C144.32674742 559.63385556 144.32674742 559.63385556 143.22791624 560.28460866 C135.83627337 564.66720768 128.47975213 569.10684179 121.13428831 573.56630117 C120.54610319 573.92269674 119.95791807 574.2790923 119.35190916 574.64628774 C117.68207255 575.65843739 116.01362157 576.67287196 114.34522581 577.68739492 C113.40727171 578.25772451 112.46931761 578.8280541 111.50294065 579.4156664 C110.59753538 579.98100087 109.69213011 580.54633535 108.75928831 581.12880117 C107.66616331 581.65320791 106.57303831 582.17761464 105.44678831 582.7179125 C102.44385148 585.41177162 102.33794561 585.81647475 102.07813597 589.62196523 C102.07908344 591.46305888 102.11284582 593.30432674 102.17335081 595.14442617 C102.1818405 596.11539235 102.19033018 597.08635854 102.19907713 598.08674794 C102.23264046 601.18523214 102.3079265 604.28110496 102.38428831 607.37880117 C102.41438406 609.48032606 102.44176054 611.58189178 102.46631956 613.68348867 C102.53244177 618.83293094 102.63598523 623.9804235 102.75928831 629.12880117 C103.97511595 629.52148183 105.19094358 629.9141625 106.44361448 630.31874257 C110.96960898 631.78627599 115.48675139 633.27957814 120.00171995 634.78065664 C121.95384069 635.4256996 123.90826675 636.06381019 125.8650012 636.69471914 C128.68383204 637.6049442 131.4933214 638.54010965 134.30225706 639.48036367 C135.17327559 639.75562886 136.04429411 640.03089406 136.94170713 640.31450063 C143.25450065 642.467594 146.70311831 645.01646117 149.75928831 651.12880117 C150.309069 656.13991697 150.32083344 660.0257661 148.00928831 664.56630117 C136.69299258 677.45430464 119.68445958 677.48707741 102.75928831 683.12880117 C102.75928831 735.26880117 102.75928831 787.40880117 102.75928831 841.12880117 C107.37928831 839.14880117 111.99928831 837.16880117 116.75928831 835.12880117 C123.45396503 833.19500794 129.56074368 832.84086717 136.50263643 832.86708814 C138.08080318 832.86109405 138.08080318 832.86109405 139.69085208 832.85497886 C143.21571091 832.84401154 146.74041259 832.84720496 150.26528502 832.85032827 C152.81805614 832.84532503 155.37082568 832.83944915 157.92359298 832.83277553 C163.47332278 832.8196716 169.02302214 832.81391885 174.57276678 832.81301481 C182.82498717 832.81163706 191.07716245 832.79884318 199.32936771 832.78372706 C213.21182147 832.75862016 227.09427141 832.74274639 240.97674322 832.73214513 C254.72099773 832.72161921 268.46523776 832.70698318 282.20948172 832.68686467 C283.06423902 832.68561581 283.91899633 832.68436694 284.79965537 832.68308023 C289.14058254 832.67671643 293.4815096 832.67027926 297.82243662 832.66381384 C328.56464461 832.6181581 359.3068573 832.58170747 390.04908323 832.55067617 C419.91367359 832.52050967 449.7782543 832.48613637 479.64283323 832.44618398 C481.52100231 832.44367728 483.39917139 832.44117071 485.27734047 832.43866426 C500.53839112 832.41827563 515.79944137 832.3975967 531.06049152 832.37684739 C601.62674564 832.281113 672.19300749 832.20659174 742.75928831 832.12880117 C742.75928831 655.90880117 742.75928831 479.68880117 742.75928831 298.12880117 C737.47928831 295.48880117 732.19928831 292.84880117 726.75928831 290.12880117 C721.44678831 287.19130117 721.44678831 287.19130117 719.45850706 286.03895742 C717.59947559 284.9815429 717.59947559 284.9815429 714.75928831 284.12880117 C713.63428831 281.69130117 713.63428831 281.69130117 712.75928831 279.12880117 C712.42928831 278.46880117 712.09928831 277.80880117 711.75928831 277.12880117 C711.52100706 275.21083242 711.52100706 275.21083242 711.44678831 272.94130117 C711.4094055 272.20524648 711.37202269 271.46919179 711.33350706 270.71083242 C712.45547651 263.90696263 717.16098273 259.40791353 722.05616331 254.99598867 C723.27507257 253.8491023 724.49247599 252.7006138 725.70850706 251.55067617 C727.60597924 249.77047729 729.51066022 248.00256469 731.44337034 246.2606371 C733.32436645 244.55674933 735.15990107 242.81294005 736.99366331 241.05848867 C737.57170713 240.55695272 738.14975096 240.05541677 738.74531126 239.53868276 C741.65419388 236.68859517 742.67385093 234.9327295 743.11292601 230.80122548 C743.11896912 227.55590959 743.01145923 224.36355191 742.75928831 221.12880117 C741.89786726 220.96451116 741.03644621 220.80022115 740.14892149 220.63095266 C732.00961546 219.07538958 723.87378865 217.50295393 715.74137354 215.91174203 C711.56083105 215.09437676 707.37925469 214.28346459 703.19459105 213.48744375 C699.15202578 212.71820399 695.11313397 211.93182755 691.07616949 211.13373548 C689.53967698 210.83306047 688.00198307 210.53845563 686.46311331 210.25019437 C669.29151601 207.02486122 669.29151601 207.02486122 664.35303831 200.17958242 C663.58049465 197.51125726 663.3449074 195.09535403 663.25928831 192.31630117 C663.20772581 191.31985585 663.15616331 190.32341054 663.10303831 189.29676992 C664.08659367 184.5487735 665.92081398 182.08806959 669.75928831 179.12880117 C674.81739094 176.48388917 680.06622824 174.43646288 685.38428831 172.37880117 C686.90589641 171.77319996 688.42680458 171.16583736 689.94703245 170.55677968 C693.80143306 169.01823952 697.66450532 167.50311196 701.53168821 165.99702626 C705.60793427 164.4082765 709.67806433 162.80393537 713.74933958 161.20250112 C716.6832886 160.04951821 719.61950294 158.90320413 722.56055784 157.7684496 C723.61484983 157.36013906 724.66914183 156.95182851 725.75538206 156.53114492 C726.65442259 156.1855956 727.55346312 155.84004628 728.4797473 155.48402578 C733.29740131 153.49319741 738.02357994 151.30617429 742.75928831 149.12880117 C742.8519672 135.41179999 742.92304293 121.69487331 742.966537 107.97762281 C742.98741195 101.60814398 743.01572861 95.23887937 743.06104612 88.86952382 C743.1045061 82.72278024 743.12842611 76.57624272 743.13879728 70.42935735 C743.14618829 68.08418835 743.16062111 65.73903062 743.18220854 63.39394933 C743.2112436 60.10919235 743.21524414 56.82528691 743.21338987 53.54042226 C743.22777098 52.57081563 743.24215208 51.601209 743.25696898 50.60222036 C743.22227745 44.92310372 742.59312111 41.61371706 738.75928831 37.12880117 C734.65024653 33.42064151 731.71171095 32.00354653 726.20604974 32.00460267 C724.7940549 32.00123173 724.7940549 32.00123173 723.35353491 31.99779269 C722.31538272 32.0004197 721.27723053 32.00304672 720.20761919 32.00575334 C718.55119743 32.00402257 718.55119743 32.00402257 716.8613126 32.00225684 C713.12288807 31.99958831 709.38450573 32.00411431 705.64608335 32.00854665 C702.95412323 32.008111 700.26216591 32.00727853 697.57020634 32.00595748 C691.69776822 32.00388021 685.82534022 32.00553353 679.95290327 32.00959569 C671.22074145 32.01561928 662.48858603 32.01593256 653.7564225 32.0150537 C639.06906522 32.01373831 624.38171242 32.01708687 609.69435644 32.02307111 C595.14690011 32.02898319 580.59944565 32.03283606 566.05198812 32.03392392 C565.14829624 32.03399266 564.24460436 32.0340614 563.31352788 32.03413223 C558.72434547 32.03447055 554.13516306 32.03477194 549.54598065 32.0350591 C517.0201581 32.03716088 484.494338 32.04390204 451.96851683 32.05336171 C420.36532685 32.06254246 388.76213755 32.06962788 357.15894651 32.07386953 C356.18521664 32.07400105 355.21148676 32.07413258 354.20824992 32.07426809 C344.42987203 32.07558658 334.65149414 32.0768624 324.87311625 32.07810695 C304.9524984 32.08064333 285.03188059 32.08346458 265.1112628 32.08645803 C263.73731244 32.08666396 263.73731244 32.08666396 262.3356055 32.08687406 C201.14349875 32.09607852 139.95139336 32.11192416 78.75928831 32.12880117 Z " fill="#000000" transform="translate(89.24071168899536,31.87119883298874)"/>
<path d="M0 0 C62.11385509 -0.05141404 124.22771264 -0.0991131 186.34158325 -0.12702942 C187.2607613 -0.12744359 188.17993934 -0.12785776 189.12697127 -0.12828448 C209.10277032 -0.13726303 229.07856959 -0.1455736 249.0543692 -0.15319599 C258.85037379 -0.15693803 268.64637832 -0.16082768 278.44238281 -0.16479492 C279.4172075 -0.1651872 280.39203219 -0.16557948 281.39639702 -0.16598364 C312.99818939 -0.17876965 344.59996568 -0.20130506 376.2017483 -0.22889166 C408.67433901 -0.25718698 441.14692082 -0.27565576 473.61952365 -0.28174497 C478.20514149 -0.28260945 482.7907593 -0.28358636 487.37637711 -0.28463173 C488.73016166 -0.28493513 488.73016166 -0.28493513 490.11129539 -0.28524467 C504.64448487 -0.28879101 519.17764684 -0.30270841 533.71082509 -0.3204961 C548.31850903 -0.33815395 562.92616566 -0.3449049 577.53385989 -0.34050413 C586.21453213 -0.33822092 594.89510453 -0.34431881 603.57575875 -0.36239263 C609.37480889 -0.37364268 615.17379364 -0.3739907 620.97284828 -0.36549544 C624.27686784 -0.36096672 627.58066055 -0.36281769 630.8846675 -0.37464955 C634.44707058 -0.38666684 638.00898332 -0.38021246 641.57137871 -0.36914349 C642.59274614 -0.37702453 643.61411358 -0.38490557 644.66643155 -0.39302543 C654.91563707 -0.32093433 664.20830496 2.08847792 672 9 C678.78241635 16.96027873 681.55808097 24.0830715 681.37890625 34.546875 C680.54146907 42.17877674 677.23857954 49.83635299 671.9375 55.46875 C665.0115686 60.94246998 656.9986364 64.12588592 648.19195241 64.1241985 C647.24469451 64.12644579 646.29743661 64.12869308 645.32147393 64.13100848 C643.76972017 64.12706796 643.76972017 64.12706796 642.18661785 64.12304783 C641.07834061 64.12420167 639.97006338 64.12535552 638.82820198 64.12654433 C635.08822717 64.12920609 631.34829479 64.12469239 627.60832214 64.12025452 C624.91051111 64.12069031 622.21270287 64.12152308 619.5148924 64.12284368 C613.63586737 64.12491864 607.75685245 64.12327157 601.8778286 64.11920547 C593.1359042 64.1131761 584.39398619 64.11286915 575.65206009 64.11374746 C560.94750882 64.11506214 546.24296205 64.11171699 531.53841209 64.10573006 C516.97586228 64.09981611 502.41331433 64.09596473 487.85076332 64.09487724 C486.94582257 64.0948085 486.04088182 64.09473976 485.10851863 64.09466894 C480.51291409 64.09433062 475.91730956 64.09402923 471.32170502 64.09374207 C438.75816991 64.0916408 406.19463725 64.08490107 373.63110352 64.07543945 C341.99308281 64.06625735 310.35506278 64.05917259 278.71704102 64.05493164 C277.74208014 64.05480011 276.76711926 64.05466859 275.76261411 64.05453308 C265.97179206 64.05321457 256.18097001 64.05193876 246.39014795 64.05069422 C226.44453158 64.0481579 206.49891526 64.04533665 186.55329895 64.04234314 C185.63620113 64.04220585 184.71910332 64.04206856 183.77421466 64.04192711 C122.51614209 64.03272408 61.25807088 64.01687861 0 64 C0.41744476 62.96780838 0.83488953 61.93561676 1.26498413 60.87214661 C1.81525608 59.50570269 2.3654321 58.13922014 2.91552734 56.77270508 C3.1903746 56.09383492 3.46522186 55.41496475 3.74839783 54.71552277 C6.85657995 46.98208713 8.39203988 40.1467043 8.375 31.8125 C8.37338867 30.98314941 8.37177734 30.15379883 8.37011719 29.29931641 C8.19024204 20.19093262 5.60137357 12.56535886 1.92089844 4.30908203 C1.56106873 3.50133331 1.20123901 2.69358459 0.83050537 1.86135864 C0.5564386 1.24711029 0.28237183 0.63286194 0 0 Z " fill="#AD7436" transform="translate(279,896)"/>
<path d="M0 0 C0.66404097 -0.00205263 1.32808194 -0.00410527 2.01224536 -0.0062201 C4.25917237 -0.01191858 6.50603864 -0.01042936 8.75297165 -0.00901413 C10.37146887 -0.01159614 11.98996545 -0.01460884 13.60846114 -0.01801753 C18.07318045 -0.02611015 22.53788371 -0.02787836 27.00260949 -0.028615 C31.81119105 -0.03046165 36.61976419 -0.03800703 41.42834091 -0.04475021 C51.95101589 -0.05835035 62.47368706 -0.06436093 72.99636936 -0.06876087 C79.5631436 -0.07152059 86.12991636 -0.07575746 92.69668961 -0.08026505 C110.86743833 -0.09246015 129.03818587 -0.10275883 147.2089386 -0.10614014 C148.95447601 -0.10646949 148.95447601 -0.10646949 150.7352768 -0.10680549 C151.90180241 -0.10702377 153.06832801 -0.10724204 154.27020288 -0.10746694 C156.63414908 -0.10791041 158.99809527 -0.10835697 161.36204147 -0.10880661 C162.53464821 -0.10902804 163.70725495 -0.10924947 164.91539523 -0.10947761 C183.91958692 -0.11342635 202.92374028 -0.13088161 221.92791715 -0.15416613 C241.42524493 -0.17786262 260.92255347 -0.19034122 280.41989589 -0.19150805 C291.3725485 -0.1924258 302.32515118 -0.19820309 313.27779007 -0.21632767 C322.60380629 -0.23170573 331.92975716 -0.23686273 341.25578365 -0.22858956 C346.01596646 -0.22467484 350.77601759 -0.22565262 355.53618431 -0.23964691 C359.89239127 -0.25233672 364.24836693 -0.25123181 368.60457334 -0.2390562 C370.18200103 -0.23709063 371.75944483 -0.24021712 373.33684984 -0.24890056 C375.47908539 -0.25994834 377.62049817 -0.25253722 379.76271057 -0.24050903 C380.95318882 -0.24110612 382.14366707 -0.24170321 383.37022042 -0.24231839 C387.695145 0.25308906 391.0796928 1.68139334 394.27756882 4.66658401 C398.46668308 10.14465652 399.25456159 13.31768295 398.63303757 20.13142776 C396.80769165 25.40464929 394.02584554 27.92833862 389.63303757 31.13142776 C386.25563461 32.25722875 383.7045208 32.26029344 380.14302731 32.26564884 C379.47783249 32.26800107 378.81263768 32.2703533 378.12728545 32.27277681 C375.88245707 32.27947141 373.63768651 32.27900845 371.39284897 32.27859879 C369.77348852 32.28189711 368.15412889 32.28562261 366.53477031 32.28974026 C362.07231229 32.29977171 357.60986772 32.30347889 353.14740002 32.30612957 C348.33951629 32.31002916 343.53164325 32.31960764 338.72376633 32.32834244 C327.10753763 32.34811523 315.49130805 32.35817348 303.87506673 32.36707023 C298.40821333 32.37145125 292.94136091 32.37681849 287.47450829 32.3820591 C269.30800928 32.39907116 251.14151089 32.41356661 232.97500515 32.42080784 C228.25953483 32.42271781 223.54406451 32.42463813 218.82859421 32.42659378 C217.07053235 32.42731939 217.07053235 32.42731939 215.27695409 32.42805966 C196.27928011 32.43636473 177.28166899 32.4617098 158.28402247 32.49417446 C138.79118334 32.52721455 119.2983762 32.54525378 99.80550891 32.54845208 C88.85620622 32.55061986 77.90699525 32.55940779 66.9577198 32.58491325 C57.63537541 32.60657849 48.313145 32.61469125 38.99077829 32.60494647 C34.23257391 32.60038981 29.47460493 32.60236711 24.71643257 32.62170792 C20.36205829 32.63925493 16.00809262 32.63841114 11.65371452 32.62281062 C10.07698692 32.62042164 8.50023165 32.62482456 6.92354652 32.63663927 C4.78205598 32.65169461 2.64202522 32.64213207 0.50057125 32.62641239 C-0.68936493 32.6273892 -1.87930111 32.62836601 -3.10529596 32.62937242 C-8.20454177 31.8508924 -11.2834379 29.33209009 -14.67946243 25.56892776 C-17.82382179 21.02707536 -18.02734327 16.48785011 -17.36696243 11.13142776 C-13.43615562 3.41539958 -8.43193544 0.00883353 0 0 Z " fill="#000000" transform="translate(321.3669624328613,623.8685722351074)"/>
<path d="M0 0 C0.66404097 -0.00205263 1.32808194 -0.00410527 2.01224536 -0.0062201 C4.25917237 -0.01191858 6.50603864 -0.01042936 8.75297165 -0.00901413 C10.37146887 -0.01159614 11.98996545 -0.01460884 13.60846114 -0.01801753 C18.07318045 -0.02611015 22.53788371 -0.02787836 27.00260949 -0.028615 C31.81119105 -0.03046165 36.61976419 -0.03800703 41.42834091 -0.04475021 C51.95101589 -0.05835035 62.47368706 -0.06436093 72.99636936 -0.06876087 C79.5631436 -0.07152059 86.12991636 -0.07575746 92.69668961 -0.08026505 C110.86743833 -0.09246015 129.03818587 -0.10275883 147.2089386 -0.10614014 C148.95447601 -0.10646949 148.95447601 -0.10646949 150.7352768 -0.10680549 C151.90180241 -0.10702377 153.06832801 -0.10724204 154.27020288 -0.10746694 C156.63414908 -0.10791041 158.99809527 -0.10835697 161.36204147 -0.10880661 C162.53464821 -0.10902804 163.70725495 -0.10924947 164.91539523 -0.10947761 C183.91958692 -0.11342635 202.92374028 -0.13088161 221.92791715 -0.15416613 C241.42524493 -0.17786262 260.92255347 -0.19034122 280.41989589 -0.19150805 C291.3725485 -0.1924258 302.32515118 -0.19820309 313.27779007 -0.21632767 C322.60380629 -0.23170573 331.92975716 -0.23686273 341.25578365 -0.22858956 C346.01596646 -0.22467484 350.77601759 -0.22565262 355.53618431 -0.23964691 C359.89239127 -0.25233672 364.24836693 -0.25123181 368.60457334 -0.2390562 C370.18200103 -0.23709063 371.75944483 -0.24021712 373.33684984 -0.24890056 C375.47908539 -0.25994834 377.62049817 -0.25253722 379.76271057 -0.24050903 C380.95318882 -0.24110612 382.14366707 -0.24170321 383.37022042 -0.24231839 C387.695145 0.25308906 391.0796928 1.68139334 394.27756882 4.66658401 C398.46668308 10.14465652 399.25456159 13.31768295 398.63303757 20.13142776 C396.80769165 25.40464929 394.02584554 27.92833862 389.63303757 31.13142776 C386.25563461 32.25722875 383.7045208 32.26029344 380.14302731 32.26564884 C379.47783249 32.26800107 378.81263768 32.2703533 378.12728545 32.27277681 C375.88245707 32.27947141 373.63768651 32.27900845 371.39284897 32.27859879 C369.77348852 32.28189711 368.15412889 32.28562261 366.53477031 32.28974026 C362.07231229 32.29977171 357.60986772 32.30347889 353.14740002 32.30612957 C348.33951629 32.31002916 343.53164325 32.31960764 338.72376633 32.32834244 C327.10753763 32.34811523 315.49130805 32.35817348 303.87506673 32.36707023 C298.40821333 32.37145125 292.94136091 32.37681849 287.47450829 32.3820591 C269.30800928 32.39907116 251.14151089 32.41356661 232.97500515 32.42080784 C228.25953483 32.42271781 223.54406451 32.42463813 218.82859421 32.42659378 C217.07053235 32.42731939 217.07053235 32.42731939 215.27695409 32.42805966 C196.27928011 32.43636473 177.28166899 32.4617098 158.28402247 32.49417446 C138.79118334 32.52721455 119.2983762 32.54525378 99.80550891 32.54845208 C88.85620622 32.55061986 77.90699525 32.55940779 66.9577198 32.58491325 C57.63537541 32.60657849 48.313145 32.61469125 38.99077829 32.60494647 C34.23257391 32.60038981 29.47460493 32.60236711 24.71643257 32.62170792 C20.36205829 32.63925493 16.00809262 32.63841114 11.65371452 32.62281062 C10.07698692 32.62042164 8.50023165 32.62482456 6.92354652 32.63663927 C4.78205598 32.65169461 2.64202522 32.64213207 0.50057125 32.62641239 C-0.68936493 32.6273892 -1.87930111 32.62836601 -3.10529596 32.62937242 C-8.20454177 31.8508924 -11.2834379 29.33209009 -14.67946243 25.56892776 C-17.82382179 21.02707536 -18.02734327 16.48785011 -17.36696243 11.13142776 C-13.43615562 3.41539958 -8.43193544 0.00883353 0 0 Z " fill="#000000" transform="translate(321.3669624328613,559.8685722351074)"/>
<path d="M0 0 C0.66404097 -0.00205263 1.32808194 -0.00410527 2.01224536 -0.0062201 C4.25917237 -0.01191858 6.50603864 -0.01042936 8.75297165 -0.00901413 C10.37146887 -0.01159614 11.98996545 -0.01460884 13.60846114 -0.01801753 C18.07318045 -0.02611015 22.53788371 -0.02787836 27.00260949 -0.028615 C31.81119105 -0.03046165 36.61976419 -0.03800703 41.42834091 -0.04475021 C51.95101589 -0.05835035 62.47368706 -0.06436093 72.99636936 -0.06876087 C79.5631436 -0.07152059 86.12991636 -0.07575746 92.69668961 -0.08026505 C110.86743833 -0.09246015 129.03818587 -0.10275883 147.2089386 -0.10614014 C148.95447601 -0.10646949 148.95447601 -0.10646949 150.7352768 -0.10680549 C151.90180241 -0.10702377 153.06832801 -0.10724204 154.27020288 -0.10746694 C156.63414908 -0.10791041 158.99809527 -0.10835697 161.36204147 -0.10880661 C162.53464821 -0.10902804 163.70725495 -0.10924947 164.91539523 -0.10947761 C183.91958692 -0.11342635 202.92374028 -0.13088161 221.92791715 -0.15416613 C241.42524493 -0.17786262 260.92255347 -0.19034122 280.41989589 -0.19150805 C291.3725485 -0.1924258 302.32515118 -0.19820309 313.27779007 -0.21632767 C322.60380629 -0.23170573 331.92975716 -0.23686273 341.25578365 -0.22858956 C346.01596646 -0.22467484 350.77601759 -0.22565262 355.53618431 -0.23964691 C359.89239127 -0.25233672 364.24836693 -0.25123181 368.60457334 -0.2390562 C370.18200103 -0.23709063 371.75944483 -0.24021712 373.33684984 -0.24890056 C375.47908539 -0.25994834 377.62049817 -0.25253722 379.76271057 -0.24050903 C380.95318882 -0.24110612 382.14366707 -0.24170321 383.37022042 -0.24231839 C387.695145 0.25308906 391.0796928 1.68139334 394.27756882 4.66658401 C398.46668308 10.14465652 399.25456159 13.31768295 398.63303757 20.13142776 C396.80769165 25.40464929 394.02584554 27.92833862 389.63303757 31.13142776 C386.25563461 32.25722875 383.7045208 32.26029344 380.14302731 32.26564884 C379.47783249 32.26800107 378.81263768 32.2703533 378.12728545 32.27277681 C375.88245707 32.27947141 373.63768651 32.27900845 371.39284897 32.27859879 C369.77348852 32.28189711 368.15412889 32.28562261 366.53477031 32.28974026 C362.07231229 32.29977171 357.60986772 32.30347889 353.14740002 32.30612957 C348.33951629 32.31002916 343.53164325 32.31960764 338.72376633 32.32834244 C327.10753763 32.34811523 315.49130805 32.35817348 303.87506673 32.36707023 C298.40821333 32.37145125 292.94136091 32.37681849 287.47450829 32.3820591 C269.30800928 32.39907116 251.14151089 32.41356661 232.97500515 32.42080784 C228.25953483 32.42271781 223.54406451 32.42463813 218.82859421 32.42659378 C217.07053235 32.42731939 217.07053235 32.42731939 215.27695409 32.42805966 C196.27928011 32.43636473 177.28166899 32.4617098 158.28402247 32.49417446 C138.79118334 32.52721455 119.2983762 32.54525378 99.80550891 32.54845208 C88.85620622 32.55061986 77.90699525 32.55940779 66.9577198 32.58491325 C57.63537541 32.60657849 48.313145 32.61469125 38.99077829 32.60494647 C34.23257391 32.60038981 29.47460493 32.60236711 24.71643257 32.62170792 C20.36205829 32.63925493 16.00809262 32.63841114 11.65371452 32.62281062 C10.07698692 32.62042164 8.50023165 32.62482456 6.92354652 32.63663927 C4.78205598 32.65169461 2.64202522 32.64213207 0.50057125 32.62641239 C-0.68936493 32.6273892 -1.87930111 32.62836601 -3.10529596 32.62937242 C-8.20454177 31.8508924 -11.2834379 29.33209009 -14.67946243 25.56892776 C-17.82382179 21.02707536 -18.02734327 16.48785011 -17.36696243 11.13142776 C-13.43615562 3.41539958 -8.43193544 0.00883353 0 0 Z " fill="#000000" transform="translate(385.3669624328613,479.8685722351074)"/>
<path d="M0 0 C0.66404097 -0.00205263 1.32808194 -0.00410527 2.01224536 -0.0062201 C4.25917237 -0.01191858 6.50603864 -0.01042936 8.75297165 -0.00901413 C10.37146887 -0.01159614 11.98996545 -0.01460884 13.60846114 -0.01801753 C18.07318045 -0.02611015 22.53788371 -0.02787836 27.00260949 -0.028615 C31.81119105 -0.03046165 36.61976419 -0.03800703 41.42834091 -0.04475021 C51.95101589 -0.05835035 62.47368706 -0.06436093 72.99636936 -0.06876087 C79.5631436 -0.07152059 86.12991636 -0.07575746 92.69668961 -0.08026505 C110.86743833 -0.09246015 129.03818587 -0.10275883 147.2089386 -0.10614014 C148.95447601 -0.10646949 148.95447601 -0.10646949 150.7352768 -0.10680549 C151.90180241 -0.10702377 153.06832801 -0.10724204 154.27020288 -0.10746694 C156.63414908 -0.10791041 158.99809527 -0.10835697 161.36204147 -0.10880661 C162.53464821 -0.10902804 163.70725495 -0.10924947 164.91539523 -0.10947761 C183.91958692 -0.11342635 202.92374028 -0.13088161 221.92791715 -0.15416613 C241.42524493 -0.17786262 260.92255347 -0.19034122 280.41989589 -0.19150805 C291.3725485 -0.1924258 302.32515118 -0.19820309 313.27779007 -0.21632767 C322.60380629 -0.23170573 331.92975716 -0.23686273 341.25578365 -0.22858956 C346.01596646 -0.22467484 350.77601759 -0.22565262 355.53618431 -0.23964691 C359.89239127 -0.25233672 364.24836693 -0.25123181 368.60457334 -0.2390562 C370.18200103 -0.23709063 371.75944483 -0.24021712 373.33684984 -0.24890056 C375.47908539 -0.25994834 377.62049817 -0.25253722 379.76271057 -0.24050903 C380.95318882 -0.24110612 382.14366707 -0.24170321 383.37022042 -0.24231839 C387.695145 0.25308906 391.0796928 1.68139334 394.27756882 4.66658401 C398.46668308 10.14465652 399.25456159 13.31768295 398.63303757 20.13142776 C396.80769165 25.40464929 394.02584554 27.92833862 389.63303757 31.13142776 C386.25563461 32.25722875 383.7045208 32.26029344 380.14302731 32.26564884 C379.47783249 32.26800107 378.81263768 32.2703533 378.12728545 32.27277681 C375.88245707 32.27947141 373.63768651 32.27900845 371.39284897 32.27859879 C369.77348852 32.28189711 368.15412889 32.28562261 366.53477031 32.28974026 C362.07231229 32.29977171 357.60986772 32.30347889 353.14740002 32.30612957 C348.33951629 32.31002916 343.53164325 32.31960764 338.72376633 32.32834244 C327.10753763 32.34811523 315.49130805 32.35817348 303.87506673 32.36707023 C298.40821333 32.37145125 292.94136091 32.37681849 287.47450829 32.3820591 C269.30800928 32.39907116 251.14151089 32.41356661 232.97500515 32.42080784 C228.25953483 32.42271781 223.54406451 32.42463813 218.82859421 32.42659378 C217.07053235 32.42731939 217.07053235 32.42731939 215.27695409 32.42805966 C196.27928011 32.43636473 177.28166899 32.4617098 158.28402247 32.49417446 C138.79118334 32.52721455 119.2983762 32.54525378 99.80550891 32.54845208 C88.85620622 32.55061986 77.90699525 32.55940779 66.9577198 32.58491325 C57.63537541 32.60657849 48.313145 32.61469125 38.99077829 32.60494647 C34.23257391 32.60038981 29.47460493 32.60236711 24.71643257 32.62170792 C20.36205829 32.63925493 16.00809262 32.63841114 11.65371452 32.62281062 C10.07698692 32.62042164 8.50023165 32.62482456 6.92354652 32.63663927 C4.78205598 32.65169461 2.64202522 32.64213207 0.50057125 32.62641239 C-0.68936493 32.6273892 -1.87930111 32.62836601 -3.10529596 32.62937242 C-8.20454177 31.8508924 -11.2834379 29.33209009 -14.67946243 25.56892776 C-17.82382179 21.02707536 -18.02734327 16.48785011 -17.36696243 11.13142776 C-13.43615562 3.41539958 -8.43193544 0.00883353 0 0 Z " fill="#000000" transform="translate(385.3669624328613,415.8685722351074)"/>
<path d="M0 0 C0.66404097 -0.00205263 1.32808194 -0.00410527 2.01224536 -0.0062201 C4.25917237 -0.01191858 6.50603864 -0.01042936 8.75297165 -0.00901413 C10.37146887 -0.01159614 11.98996545 -0.01460884 13.60846114 -0.01801753 C18.07318045 -0.02611015 22.53788371 -0.02787836 27.00260949 -0.028615 C31.81119105 -0.03046165 36.61976419 -0.03800703 41.42834091 -0.04475021 C51.95101589 -0.05835035 62.47368706 -0.06436093 72.99636936 -0.06876087 C79.5631436 -0.07152059 86.12991636 -0.07575746 92.69668961 -0.08026505 C110.86743833 -0.09246015 129.03818587 -0.10275883 147.2089386 -0.10614014 C148.95447601 -0.10646949 148.95447601 -0.10646949 150.7352768 -0.10680549 C151.90180241 -0.10702377 153.06832801 -0.10724204 154.27020288 -0.10746694 C156.63414908 -0.10791041 158.99809527 -0.10835697 161.36204147 -0.10880661 C162.53464821 -0.10902804 163.70725495 -0.10924947 164.91539523 -0.10947761 C183.91958692 -0.11342635 202.92374028 -0.13088161 221.92791715 -0.15416613 C241.42524493 -0.17786262 260.92255347 -0.19034122 280.41989589 -0.19150805 C291.3725485 -0.1924258 302.32515118 -0.19820309 313.27779007 -0.21632767 C322.60380629 -0.23170573 331.92975716 -0.23686273 341.25578365 -0.22858956 C346.01596646 -0.22467484 350.77601759 -0.22565262 355.53618431 -0.23964691 C359.89239127 -0.25233672 364.24836693 -0.25123181 368.60457334 -0.2390562 C370.18200103 -0.23709063 371.75944483 -0.24021712 373.33684984 -0.24890056 C375.47908539 -0.25994834 377.62049817 -0.25253722 379.76271057 -0.24050903 C380.95318882 -0.24110612 382.14366707 -0.24170321 383.37022042 -0.24231839 C387.695145 0.25308906 391.0796928 1.68139334 394.27756882 4.66658401 C398.46668308 10.14465652 399.25456159 13.31768295 398.63303757 20.13142776 C396.80769165 25.40464929 394.02584554 27.92833862 389.63303757 31.13142776 C386.25563461 32.25722875 383.7045208 32.26029344 380.14302731 32.26564884 C379.47783249 32.26800107 378.81263768 32.2703533 378.12728545 32.27277681 C375.88245707 32.27947141 373.63768651 32.27900845 371.39284897 32.27859879 C369.77348852 32.28189711 368.15412889 32.28562261 366.53477031 32.28974026 C362.07231229 32.29977171 357.60986772 32.30347889 353.14740002 32.30612957 C348.33951629 32.31002916 343.53164325 32.31960764 338.72376633 32.32834244 C327.10753763 32.34811523 315.49130805 32.35817348 303.87506673 32.36707023 C298.40821333 32.37145125 292.94136091 32.37681849 287.47450829 32.3820591 C269.30800928 32.39907116 251.14151089 32.41356661 232.97500515 32.42080784 C228.25953483 32.42271781 223.54406451 32.42463813 218.82859421 32.42659378 C217.07053235 32.42731939 217.07053235 32.42731939 215.27695409 32.42805966 C196.27928011 32.43636473 177.28166899 32.4617098 158.28402247 32.49417446 C138.79118334 32.52721455 119.2983762 32.54525378 99.80550891 32.54845208 C88.85620622 32.55061986 77.90699525 32.55940779 66.9577198 32.58491325 C57.63537541 32.60657849 48.313145 32.61469125 38.99077829 32.60494647 C34.23257391 32.60038981 29.47460493 32.60236711 24.71643257 32.62170792 C20.36205829 32.63925493 16.00809262 32.63841114 11.65371452 32.62281062 C10.07698692 32.62042164 8.50023165 32.62482456 6.92354652 32.63663927 C4.78205598 32.65169461 2.64202522 32.64213207 0.50057125 32.62641239 C-0.68936493 32.6273892 -1.87930111 32.62836601 -3.10529596 32.62937242 C-8.20454177 31.8508924 -11.2834379 29.33209009 -14.67946243 25.56892776 C-17.82382179 21.02707536 -18.02734327 16.48785011 -17.36696243 11.13142776 C-13.43615562 3.41539958 -8.43193544 0.00883353 0 0 Z " fill="#000000" transform="translate(321.3669624328613,335.8685722351074)"/>
<path d="M0 0 C0.66404097 -0.00205263 1.32808194 -0.00410527 2.01224536 -0.0062201 C4.25917237 -0.01191858 6.50603864 -0.01042936 8.75297165 -0.00901413 C10.37146887 -0.01159614 11.98996545 -0.01460884 13.60846114 -0.01801753 C18.07318045 -0.02611015 22.53788371 -0.02787836 27.00260949 -0.028615 C31.81119105 -0.03046165 36.61976419 -0.03800703 41.42834091 -0.04475021 C51.95101589 -0.05835035 62.47368706 -0.06436093 72.99636936 -0.06876087 C79.5631436 -0.07152059 86.12991636 -0.07575746 92.69668961 -0.08026505 C110.86743833 -0.09246015 129.03818587 -0.10275883 147.2089386 -0.10614014 C148.95447601 -0.10646949 148.95447601 -0.10646949 150.7352768 -0.10680549 C151.90180241 -0.10702377 153.06832801 -0.10724204 154.27020288 -0.10746694 C156.63414908 -0.10791041 158.99809527 -0.10835697 161.36204147 -0.10880661 C162.53464821 -0.10902804 163.70725495 -0.10924947 164.91539523 -0.10947761 C183.91958692 -0.11342635 202.92374028 -0.13088161 221.92791715 -0.15416613 C241.42524493 -0.17786262 260.92255347 -0.19034122 280.41989589 -0.19150805 C291.3725485 -0.1924258 302.32515118 -0.19820309 313.27779007 -0.21632767 C322.60380629 -0.23170573 331.92975716 -0.23686273 341.25578365 -0.22858956 C346.01596646 -0.22467484 350.77601759 -0.22565262 355.53618431 -0.23964691 C359.89239127 -0.25233672 364.24836693 -0.25123181 368.60457334 -0.2390562 C370.18200103 -0.23709063 371.75944483 -0.24021712 373.33684984 -0.24890056 C375.47908539 -0.25994834 377.62049817 -0.25253722 379.76271057 -0.24050903 C380.95318882 -0.24110612 382.14366707 -0.24170321 383.37022042 -0.24231839 C387.695145 0.25308906 391.0796928 1.68139334 394.27756882 4.66658401 C398.46668308 10.14465652 399.25456159 13.31768295 398.63303757 20.13142776 C396.80769165 25.40464929 394.02584554 27.92833862 389.63303757 31.13142776 C386.25563461 32.25722875 383.7045208 32.26029344 380.14302731 32.26564884 C379.47783249 32.26800107 378.81263768 32.2703533 378.12728545 32.27277681 C375.88245707 32.27947141 373.63768651 32.27900845 371.39284897 32.27859879 C369.77348852 32.28189711 368.15412889 32.28562261 366.53477031 32.28974026 C362.07231229 32.29977171 357.60986772 32.30347889 353.14740002 32.30612957 C348.33951629 32.31002916 343.53164325 32.31960764 338.72376633 32.32834244 C327.10753763 32.34811523 315.49130805 32.35817348 303.87506673 32.36707023 C298.40821333 32.37145125 292.94136091 32.37681849 287.47450829 32.3820591 C269.30800928 32.39907116 251.14151089 32.41356661 232.97500515 32.42080784 C228.25953483 32.42271781 223.54406451 32.42463813 218.82859421 32.42659378 C217.07053235 32.42731939 217.07053235 32.42731939 215.27695409 32.42805966 C196.27928011 32.43636473 177.28166899 32.4617098 158.28402247 32.49417446 C138.79118334 32.52721455 119.2983762 32.54525378 99.80550891 32.54845208 C88.85620622 32.55061986 77.90699525 32.55940779 66.9577198 32.58491325 C57.63537541 32.60657849 48.313145 32.61469125 38.99077829 32.60494647 C34.23257391 32.60038981 29.47460493 32.60236711 24.71643257 32.62170792 C20.36205829 32.63925493 16.00809262 32.63841114 11.65371452 32.62281062 C10.07698692 32.62042164 8.50023165 32.62482456 6.92354652 32.63663927 C4.78205598 32.65169461 2.64202522 32.64213207 0.50057125 32.62641239 C-0.68936493 32.6273892 -1.87930111 32.62836601 -3.10529596 32.62937242 C-8.20454177 31.8508924 -11.2834379 29.33209009 -14.67946243 25.56892776 C-17.82382179 21.02707536 -18.02734327 16.48785011 -17.36696243 11.13142776 C-13.43615562 3.41539958 -8.43193544 0.00883353 0 0 Z " fill="#000000" transform="translate(321.3669624328613,271.8685722351074)"/>
<path d="M0 0 C0.66404097 -0.00205263 1.32808194 -0.00410527 2.01224536 -0.0062201 C4.25917237 -0.01191858 6.50603864 -0.01042936 8.75297165 -0.00901413 C10.37146887 -0.01159614 11.98996545 -0.01460884 13.60846114 -0.01801753 C18.07318045 -0.02611015 22.53788371 -0.02787836 27.00260949 -0.028615 C31.81119105 -0.03046165 36.61976419 -0.03800703 41.42834091 -0.04475021 C51.95101589 -0.05835035 62.47368706 -0.06436093 72.99636936 -0.06876087 C79.5631436 -0.07152059 86.12991636 -0.07575746 92.69668961 -0.08026505 C110.86743833 -0.09246015 129.03818587 -0.10275883 147.2089386 -0.10614014 C148.95447601 -0.10646949 148.95447601 -0.10646949 150.7352768 -0.10680549 C151.90180241 -0.10702377 153.06832801 -0.10724204 154.27020288 -0.10746694 C156.63414908 -0.10791041 158.99809527 -0.10835697 161.36204147 -0.10880661 C162.53464821 -0.10902804 163.70725495 -0.10924947 164.91539523 -0.10947761 C183.91958692 -0.11342635 202.92374028 -0.13088161 221.92791715 -0.15416613 C241.42524493 -0.17786262 260.92255347 -0.19034122 280.41989589 -0.19150805 C291.3725485 -0.1924258 302.32515118 -0.19820309 313.27779007 -0.21632767 C322.60380629 -0.23170573 331.92975716 -0.23686273 341.25578365 -0.22858956 C346.01596646 -0.22467484 350.77601759 -0.22565262 355.53618431 -0.23964691 C359.89239127 -0.25233672 364.24836693 -0.25123181 368.60457334 -0.2390562 C370.18200103 -0.23709063 371.75944483 -0.24021712 373.33684984 -0.24890056 C375.47908539 -0.25994834 377.62049817 -0.25253722 379.76271057 -0.24050903 C380.95318882 -0.24110612 382.14366707 -0.24170321 383.37022042 -0.24231839 C387.695145 0.25308906 391.0796928 1.68139334 394.27756882 4.66658401 C398.46668308 10.14465652 399.25456159 13.31768295 398.63303757 20.13142776 C396.80769165 25.40464929 394.02584554 27.92833862 389.63303757 31.13142776 C386.25563461 32.25722875 383.7045208 32.26029344 380.14302731 32.26564884 C379.47783249 32.26800107 378.81263768 32.2703533 378.12728545 32.27277681 C375.88245707 32.27947141 373.63768651 32.27900845 371.39284897 32.27859879 C369.77348852 32.28189711 368.15412889 32.28562261 366.53477031 32.28974026 C362.07231229 32.29977171 357.60986772 32.30347889 353.14740002 32.30612957 C348.33951629 32.31002916 343.53164325 32.31960764 338.72376633 32.32834244 C327.10753763 32.34811523 315.49130805 32.35817348 303.87506673 32.36707023 C298.40821333 32.37145125 292.94136091 32.37681849 287.47450829 32.3820591 C269.30800928 32.39907116 251.14151089 32.41356661 232.97500515 32.42080784 C228.25953483 32.42271781 223.54406451 32.42463813 218.82859421 32.42659378 C217.07053235 32.42731939 217.07053235 32.42731939 215.27695409 32.42805966 C196.27928011 32.43636473 177.28166899 32.4617098 158.28402247 32.49417446 C138.79118334 32.52721455 119.2983762 32.54525378 99.80550891 32.54845208 C88.85620622 32.55061986 77.90699525 32.55940779 66.9577198 32.58491325 C57.63537541 32.60657849 48.313145 32.61469125 38.99077829 32.60494647 C34.23257391 32.60038981 29.47460493 32.60236711 24.71643257 32.62170792 C20.36205829 32.63925493 16.00809262 32.63841114 11.65371452 32.62281062 C10.07698692 32.62042164 8.50023165 32.62482456 6.92354652 32.63663927 C4.78205598 32.65169461 2.64202522 32.64213207 0.50057125 32.62641239 C-0.68936493 32.6273892 -1.87930111 32.62836601 -3.10529596 32.62937242 C-8.20454177 31.8508924 -11.2834379 29.33209009 -14.67946243 25.56892776 C-17.82382179 21.02707536 -18.02734327 16.48785011 -17.36696243 11.13142776 C-13.43615562 3.41539958 -8.43193544 0.00883353 0 0 Z " fill="#000000" transform="translate(305.3669624328613,207.86857223510742)"/>
<path d="M0 0 C0.66404097 -0.00205263 1.32808194 -0.00410527 2.01224536 -0.0062201 C4.25917237 -0.01191858 6.50603864 -0.01042936 8.75297165 -0.00901413 C10.37146887 -0.01159614 11.98996545 -0.01460884 13.60846114 -0.01801753 C18.07318045 -0.02611015 22.53788371 -0.02787836 27.00260949 -0.028615 C31.81119105 -0.03046165 36.61976419 -0.03800703 41.42834091 -0.04475021 C51.95101589 -0.05835035 62.47368706 -0.06436093 72.99636936 -0.06876087 C79.5631436 -0.07152059 86.12991636 -0.07575746 92.69668961 -0.08026505 C110.86743833 -0.09246015 129.03818587 -0.10275883 147.2089386 -0.10614014 C148.95447601 -0.10646949 148.95447601 -0.10646949 150.7352768 -0.10680549 C151.90180241 -0.10702377 153.06832801 -0.10724204 154.27020288 -0.10746694 C156.63414908 -0.10791041 158.99809527 -0.10835697 161.36204147 -0.10880661 C162.53464821 -0.10902804 163.70725495 -0.10924947 164.91539523 -0.10947761 C183.91958692 -0.11342635 202.92374028 -0.13088161 221.92791715 -0.15416613 C241.42524493 -0.17786262 260.92255347 -0.19034122 280.41989589 -0.19150805 C291.3725485 -0.1924258 302.32515118 -0.19820309 313.27779007 -0.21632767 C322.60380629 -0.23170573 331.92975716 -0.23686273 341.25578365 -0.22858956 C346.01596646 -0.22467484 350.77601759 -0.22565262 355.53618431 -0.23964691 C359.89239127 -0.25233672 364.24836693 -0.25123181 368.60457334 -0.2390562 C370.18200103 -0.23709063 371.75944483 -0.24021712 373.33684984 -0.24890056 C375.47908539 -0.25994834 377.62049817 -0.25253722 379.76271057 -0.24050903 C380.95318882 -0.24110612 382.14366707 -0.24170321 383.37022042 -0.24231839 C387.695145 0.25308906 391.0796928 1.68139334 394.27756882 4.66658401 C398.46668308 10.14465652 399.25456159 13.31768295 398.63303757 20.13142776 C396.80769165 25.40464929 394.02584554 27.92833862 389.63303757 31.13142776 C386.25563461 32.25722875 383.7045208 32.26029344 380.14302731 32.26564884 C379.47783249 32.26800107 378.81263768 32.2703533 378.12728545 32.27277681 C375.88245707 32.27947141 373.63768651 32.27900845 371.39284897 32.27859879 C369.77348852 32.28189711 368.15412889 32.28562261 366.53477031 32.28974026 C362.07231229 32.29977171 357.60986772 32.30347889 353.14740002 32.30612957 C348.33951629 32.31002916 343.53164325 32.31960764 338.72376633 32.32834244 C327.10753763 32.34811523 315.49130805 32.35817348 303.87506673 32.36707023 C298.40821333 32.37145125 292.94136091 32.37681849 287.47450829 32.3820591 C269.30800928 32.39907116 251.14151089 32.41356661 232.97500515 32.42080784 C228.25953483 32.42271781 223.54406451 32.42463813 218.82859421 32.42659378 C217.07053235 32.42731939 217.07053235 32.42731939 215.27695409 32.42805966 C196.27928011 32.43636473 177.28166899 32.4617098 158.28402247 32.49417446 C138.79118334 32.52721455 119.2983762 32.54525378 99.80550891 32.54845208 C88.85620622 32.55061986 77.90699525 32.55940779 66.9577198 32.58491325 C57.63537541 32.60657849 48.313145 32.61469125 38.99077829 32.60494647 C34.23257391 32.60038981 29.47460493 32.60236711 24.71643257 32.62170792 C20.36205829 32.63925493 16.00809262 32.63841114 11.65371452 32.62281062 C10.07698692 32.62042164 8.50023165 32.62482456 6.92354652 32.63663927 C4.78205598 32.65169461 2.64202522 32.64213207 0.50057125 32.62641239 C-0.68936493 32.6273892 -1.87930111 32.62836601 -3.10529596 32.62937242 C-8.20454177 31.8508924 -11.2834379 29.33209009 -14.67946243 25.56892776 C-17.82382179 21.02707536 -18.02734327 16.48785011 -17.36696243 11.13142776 C-13.43615562 3.41539958 -8.43193544 0.00883353 0 0 Z " fill="#000000" transform="translate(305.3669624328613,143.86857223510742)"/>
<path d="M0 0 C14.02914116 10.61996175 25.72571595 25.77558454 28.234375 43.69140625 C29.9938479 62.49045638 25.89305985 79.45707211 14.06640625 94.4375 C3.51294643 106.66207566 -11.68452755 116.29854032 -28.06591797 117.91894531 C-46.79990398 119.09328151 -62.86006601 114.71198943 -77.578125 102.6484375 C-85.98931358 95.12342772 -91.37645759 87.02755438 -95.765625 76.69140625 C-96.20132812 75.67433594 -96.63703125 74.65726563 -97.0859375 73.609375 C-102.76214095 58.148667 -100.74410826 41.20414879 -94.328125 26.3671875 C-86.41623288 10.29615662 -73.39979677 -0.85812657 -56.765625 -7.30859375 C-55.5590625 -7.79005859 -55.5590625 -7.79005859 -54.328125 -8.28125 C-36.41750669 -14.29809834 -15.55907626 -10.27435553 0 0 Z " fill="#010100" transform="translate(515.765625,698.30859375)"/>
<path d="M0 0 C0.75293264 -0.00297112 1.50586528 -0.00594224 2.28161407 -0.0090034 C4.81802318 -0.01771184 7.35438521 -0.01920046 9.89080811 -0.02069092 C11.70400596 -0.02531763 13.51720283 -0.03034209 15.33039856 -0.03573608 C20.26647561 -0.04887748 25.20253905 -0.05530859 30.13863087 -0.05974674 C33.22120409 -0.06267506 36.30377357 -0.06677943 39.38634491 -0.07125092 C49.02709825 -0.08493129 58.66784306 -0.09459493 68.30860543 -0.09845281 C79.44435871 -0.10293309 90.57998921 -0.12047738 101.71570516 -0.1494534 C110.31789377 -0.17106122 118.92004782 -0.18115663 127.52226329 -0.18249393 C132.66224173 -0.18354273 137.80210484 -0.18946635 142.94205475 -0.20731354 C147.77817253 -0.22377833 152.61408812 -0.22595745 157.45022392 -0.21717453 C159.22474903 -0.21640326 160.99928493 -0.22075865 162.77378273 -0.23063278 C165.19781834 -0.24332944 167.62113538 -0.23748816 170.04516602 -0.22705078 C170.74615016 -0.23510719 171.44713431 -0.24316359 172.1693604 -0.25146413 C177.4288297 -0.19856089 181.53304567 1.04614898 185.42108154 4.67559814 C189.61019581 10.15367065 190.39807431 13.32669708 189.77655029 20.14044189 C187.95120438 25.41366342 185.16935826 27.93735275 180.77655029 31.14044189 C177.25974468 32.31271043 174.09167433 32.28856703 170.43284607 32.28761292 C169.679059 32.2912896 168.92527194 32.29496629 168.14864284 32.29875439 C165.61534407 32.30979353 163.08208632 32.31363544 160.54876709 32.31744385 C158.73542144 32.32370825 156.92207708 32.33035503 155.10873413 32.33735657 C150.17685249 32.35476664 145.24498054 32.36531807 140.31307578 32.3735621 C137.23267495 32.3787116 134.15227714 32.38478731 131.07187843 32.39107323 C121.43647022 32.41012421 111.80106968 32.42435629 102.16564626 32.4326852 C91.03835688 32.44246224 79.91126618 32.46879437 68.78404683 32.50918609 C60.18608514 32.53932722 51.58818047 32.55415211 42.99016696 32.55746621 C37.8535152 32.55981871 32.71707573 32.56880533 27.58048058 32.59392738 C22.74841111 32.61717847 17.91669415 32.62145327 13.08458328 32.611166 C11.31166348 32.61066983 9.53872649 32.61701415 7.7658596 32.63072205 C5.34388488 32.64840033 2.92318086 32.64135571 0.50120544 32.62818909 C-0.5492476 32.64464296 -0.5492476 32.64464296 -1.62092191 32.66142923 C-6.59558885 32.59621075 -9.37427973 31.22018251 -13.22344971 28.14044189 C-17.52572561 23.37305509 -18.58627473 19.70296895 -18.50469971 13.42169189 C-17.91525582 8.64064703 -15.07524174 5.89083012 -11.59844971 2.82794189 C-7.62979502 0.0081083 -4.73647045 -0.00578113 0 0 Z " fill="#000000" transform="translate(594.2234497070313,735.8595581054688)"/>
<path d="M0 0 C8.44644451 5.27153984 14.24956073 11.72890247 17.203125 21.375 C18.73003754 31.76216011 17.49584539 40.65601422 11.203125 49.375 C5.61202137 55.85003049 -1.10210296 60.62686883 -9.75439453 61.59375 C-18.34874457 62.22121795 -26.38338338 62.25189978 -33.796875 57.375 C-34.50199219 56.92769531 -35.20710938 56.48039062 -35.93359375 56.01953125 C-43.45742564 50.83212035 -47.17136708 45.15802171 -49.2890625 36.2734375 C-51.167172 25.55376634 -49.16110547 18.08809523 -43.109375 9.1875 C-33.3024271 -3.25118582 -14.20308978 -6.9566154 0 0 Z " fill="#370E00" transform="translate(113.796875,66.625)"/>
<path d="M0 0 C7.28314342 5.25801476 12.09734409 11.89711198 14.51953125 20.55859375 C16.06400389 31.60225649 13.53985085 39.45123404 7.51953125 48.55859375 C2.31521726 54.87046198 -5.51700607 58.26787962 -13.48046875 59.55859375 C-24.03553397 60.53413766 -31.4811774 57.74055721 -39.6953125 51.17578125 C-46.44246256 45.06348339 -48.79255061 37.64918603 -49.80078125 28.72265625 C-50.18750037 19.51874122 -46.88025981 12.55522748 -41.25 5.4140625 C-30.36321527 -6.00144026 -13.62329444 -7.91652858 0 0 Z " fill="#370E00" transform="translate(241.48046875,900.44140625)"/>
<path d="M0 0 C6.69809768 4.76229994 11.16407958 11.54657266 13.3125 19.4375 C14.63589593 30.16397224 12.19041124 39.59787827 5.75 48.3125 C-0.09419259 54.52195462 -8.91954788 57.9044014 -17.265625 58.67578125 C-26.62999224 58.93590256 -33.51411837 56.04984356 -40.83203125 50.265625 C-47.93308539 43.26921798 -50.63205347 34.68504696 -51.0625 25 C-50.86882644 16.23627125 -46.67605604 8.71689099 -40.6875 2.4375 C-28.21792185 -7.6590525 -13.76318937 -8.22065287 0 0 Z " fill="#D12F27" transform="translate(498.6875,725.5625)"/>
<path d="M0 0 C2.77042109 2.77042109 2.39796106 4.76533805 2.625 8.625 C2.69976562 9.81351563 2.77453125 11.00203125 2.8515625 12.2265625 C2.92503906 13.59941406 2.92503906 13.59941406 3 15 C0.03 15 -2.94 15 -6 15 C-4.02 10.05 -2.04 5.1 0 0 Z " fill="#622F00" transform="translate(157,113)"/>
</svg>
