<?xml version="1.0" encoding="UTF-8"?>
<svg version="1.1" xmlns="http://www.w3.org/2000/svg" width="1024" height="1024">
<path d="M0 0 C0.96129964 -0.00235223 1.92259929 -0.00470446 2.91302922 -0.00712797 C6.14105666 -0.01379621 9.36904364 -0.01336041 12.59707737 -0.01294994 C14.93205484 -0.01624988 17.26703175 -0.01997573 19.60200793 -0.02409142 C25.35054716 -0.033054 31.09907663 -0.03733658 36.8476221 -0.03961039 C43.73396317 -0.04257676 50.62029408 -0.05127652 57.50662981 -0.06002467 C74.14702878 -0.08084884 90.7874295 -0.09133441 107.42783845 -0.10015428 C115.2991919 -0.10436239 123.17054459 -0.10958405 131.04189739 -0.11483881 C157.98583338 -0.13272437 184.92976959 -0.1477218 211.87371063 -0.155159 C213.56452844 -0.15563375 215.25534624 -0.15610964 216.94616405 -0.15658666 C217.78465111 -0.15682303 218.62313816 -0.15705941 219.48703392 -0.15730295 C223.73518663 -0.15850414 227.98333934 -0.1597196 232.23149204 -0.16094494 C233.07454673 -0.16118509 233.91760142 -0.16142524 234.78620322 -0.16167267 C262.13554852 -0.16957004 289.48485052 -0.19301326 316.8341769 -0.22550088 C345.74975673 -0.25978636 374.6653112 -0.27950877 403.5809117 -0.28280324 C406.75397973 -0.28322078 409.92704776 -0.28370034 413.10011578 -0.28422642 C413.88141406 -0.28434961 414.66271235 -0.2844728 415.46768634 -0.28459973 C428.04731651 -0.28693292 440.62689639 -0.30259905 453.20650863 -0.32306826 C465.84510923 -0.34330763 478.48364932 -0.34881245 491.12226313 -0.33929763 C497.9707864 -0.33453601 504.81916043 -0.3361983 511.66766071 -0.35605907 C517.93404257 -0.37359803 524.20014042 -0.37276849 530.46652491 -0.35716178 C532.73629837 -0.35477164 535.00609103 -0.35918148 537.27583503 -0.37099043 C540.35667705 -0.38602961 543.43650238 -0.3764915 546.51731873 -0.36076355 C547.4023612 -0.37098576 548.28740368 -0.38120796 549.19926563 -0.39173993 C555.6162408 -0.32004499 561.03420704 1.09590548 565.84920001 5.5461059 C571.33821177 11.76121974 571.60878521 17.25002157 571.54863071 25.15692616 C571.54892277 26.16227406 571.54921482 27.16762196 571.54951572 28.20343494 C571.54812446 31.52029576 571.5325726 34.83693084 571.51689243 38.15375233 C571.51316159 40.45589036 571.51031495 42.75802998 571.50831699 45.06017017 C571.5006862 51.11496851 571.48104236 57.16967066 571.45890903 63.22443104 C571.43843875 69.40463428 571.42931274 75.58485307 571.41923618 81.76508045 C571.39779604 93.88816955 571.36366668 106.01118731 571.32157993 118.13422108 C572.34364536 118.12533863 573.36571079 118.11645618 574.4187479 118.10730457 C584.06998394 118.02607391 593.72115025 117.96618626 603.3726511 117.92697239 C608.33412565 117.90613405 613.29532331 117.87788512 618.25663853 117.83246326 C623.04827169 117.78887145 627.8396392 117.76505575 632.63145542 117.7547121 C634.45583875 117.74734463 636.28020822 117.73295768 638.10447788 117.71130085 C640.66804552 117.68208907 643.2305278 117.6782724 645.79423618 117.68011951 C646.54158527 117.66573841 647.28893436 117.65135731 648.0589304 117.63654041 C654.4057495 117.68573742 659.45293604 119.75845229 664.34501743 123.81000233 C665.01404087 124.62017811 665.01404087 124.62017811 665.69657993 125.44672108 C666.15806431 125.97910389 666.61954868 126.5114867 667.09501743 127.06000233 C671.13138823 133.88583956 670.60082765 141.3421304 670.56767559 149.02093124 C670.56998328 150.32905589 670.57229097 151.63718054 670.57466859 152.98494533 C670.5808015 156.62109497 670.57446072 160.25713263 670.56611232 163.89327392 C670.55924058 167.84705011 670.56398615 171.800815 670.5672673 175.75459343 C670.57141504 182.6856506 670.56812677 189.61667345 670.55999088 196.54772663 C670.54792669 206.85396293 670.54731873 217.16017756 670.54907486 227.46641963 C670.55170355 244.80268367 670.54501645 262.13893247 670.53304005 279.47519207 C670.52121041 296.64296449 670.51350904 313.81073057 670.51133442 330.97850704 C670.51119694 332.04551288 670.51105946 333.11251873 670.51091782 334.21185808 C670.51024116 339.63052995 670.50963839 345.04920182 670.50906406 350.4678737 C670.50486202 388.85918327 670.49138391 427.25048454 670.47245884 465.64178944 C670.45409335 502.94094263 670.43992447 540.24009356 670.43144321 577.53925037 C670.43118016 578.68875274 670.43091711 579.83825511 670.43064609 581.02259089 C670.42800907 592.56625147 670.42545744 604.10991208 670.42296837 615.65357269 C670.41789579 639.16983244 670.41225329 662.68609204 670.40626621 686.20235157 C670.40599163 687.28361701 670.40571705 688.36488245 670.40543415 689.47891351 C670.38702944 761.69735282 670.35533864 833.91578752 670.32157993 906.13422108 C671.87347019 906.11756649 671.87347019 906.11756649 673.45671177 906.10057545 C683.22564166 905.99904276 692.99446393 905.92418062 702.76380253 905.87516022 C707.78589023 905.84911056 712.80755062 905.81379726 717.82939243 905.75702381 C722.67939525 905.70253866 727.52898807 905.67276572 732.37927341 905.65983486 C734.22600855 905.65062455 736.07272224 905.63263874 737.91928196 905.60557079 C740.51415385 905.56906009 743.10735026 905.56428476 745.70243931 905.56659412 C746.45913914 905.54861774 747.21583897 905.53064137 747.99546909 905.51212025 C753.86029331 905.56828017 757.73531419 907.5340429 762.32157993 911.13422108 C767.40320311 916.48329811 768.80682321 921.31650349 768.63407993 928.57172108 C767.95974718 934.10124962 765.53071578 938.33403737 761.38407993 942.00922108 C756.45981711 945.42605651 752.81932773 946.38416227 746.83637398 946.38722074 C746.19488197 946.39027384 745.55338996 946.39332693 744.8924588 946.39647255 C742.73593856 946.40428625 740.57969751 946.3978351 738.42317581 946.39148998 C736.85759559 946.39418252 735.29201667 946.39774987 733.72644022 946.40211445 C729.40278228 946.41160107 725.07920827 946.40856257 720.75554612 946.40355891 C716.05983787 946.40030108 711.36414789 946.40856746 706.66844541 946.41537726 C698.43140477 946.42570153 690.19438766 946.42851685 681.95734119 946.42646503 C669.70865474 946.42342134 657.45999441 946.43172496 645.21131303 946.44221429 C622.06491732 946.46158153 598.91853045 946.46718352 575.77212759 946.4683284 C557.9014114 946.46924657 540.03069869 946.47335846 522.15998363 946.47972965 C517.02076016 946.48152467 511.88153669 946.48330429 506.74231321 946.48507941 C504.82601763 946.48574255 504.82601763 946.48574255 502.87100901 946.48641909 C466.92424343 946.49873179 430.97747967 946.50663156 395.03071213 946.50573254 C393.66104731 946.50570098 392.29138249 946.50566951 390.92171767 946.50563812 C384.73767446 946.50549135 378.55363126 946.50531501 372.36958805 946.50513035 C369.61191671 946.5050481 366.85424538 946.50496781 364.09657404 946.50488772 C362.71630923 946.50484693 361.33604442 946.50480489 359.9557796 946.5047616 C316.30645897 946.50340099 272.65717077 946.51803717 229.00785923 946.54584217 C218.00999905 946.55284408 207.01213885 946.55978294 196.01427841 946.56637096 C194.99853743 946.56697959 194.99853743 946.56697959 193.96227643 946.5676005 C157.40989423 946.58937007 120.85751163 946.5933254 84.30512315 946.59191573 C79.16495661 946.59176646 74.02479007 946.59166905 68.88462353 946.59160709 C67.61892957 946.59158379 66.35323562 946.59156048 65.0491873 946.59153646 C44.65328083 946.59147484 24.25740169 946.60426352 3.86150335 946.62147162 C-16.62551136 946.63839949 -37.11248596 946.6404243 -57.59950379 946.62725298 C-69.77993903 946.61984487 -81.96025264 946.62357719 -94.14067507 946.64313766 C-102.2698458 946.65509237 -110.39892798 946.65259706 -118.52809457 946.63819666 C-123.16452347 946.63039541 -127.80071617 946.62899121 -132.43712888 946.64511137 C-136.65350917 946.65964326 -140.86945604 946.65582744 -145.08581687 946.63726363 C-146.60309635 946.63381563 -148.12040954 946.63709539 -149.6376547 946.64786605 C-165.74921025 946.75459585 -165.74921025 946.75459585 -172.18466644 940.72234716 C-176.95387038 935.40654613 -178.1568453 930.66558096 -177.99092007 923.69672108 C-177.31262269 918.13468259 -174.88114779 913.91794089 -170.67842007 910.25922108 C-165.43474183 906.544949 -161.93457424 905.84729082 -155.513381 905.9071703 C-154.69349697 905.90687824 -153.87361294 905.90658619 -153.02888393 905.90628529 C-150.3234127 905.90767676 -147.6182181 905.92322938 -144.91279507 905.93890858 C-143.03521278 905.94263935 -141.15762854 905.94548602 -139.2800436 905.94748402 C-134.34149189 905.95511537 -129.40305806 905.97475962 -124.46455288 905.99689198 C-119.423879 906.0173611 -114.38318604 906.02648802 -109.34248257 906.03656483 C-99.45440998 906.05800595 -89.56642483 906.09213593 -79.67842007 906.13422108 C-79.67888801 905.05407709 -79.67888801 905.05407709 -79.6793654 903.95211201 C-79.71325697 825.55677258 -79.74466797 747.1614323 -79.76310635 668.76608753 C-79.76338246 667.5951187 -79.76365857 666.42414986 -79.76394306 665.21769712 C-79.76992882 639.76962711 -79.77546919 614.32155702 -79.78055073 588.87348681 C-79.78304541 576.3938292 -79.78563851 563.91417162 -79.78828335 551.43451405 C-79.78854487 550.19263555 -79.78880638 548.95075706 -79.78907583 547.67124588 C-79.79759911 507.41559435 -79.81262217 467.15994843 -79.83101451 426.90430029 C-79.8498801 385.53773237 -79.86219105 344.17116756 -79.86625005 302.80459541 C-79.86682636 296.96237432 -79.86747763 291.12015324 -79.86817455 285.27793217 C-79.86837682 283.55317625 -79.86837682 283.55317625 -79.86858318 281.79357678 C-79.87094696 263.28149988 -79.88022405 244.76943258 -79.89208413 226.2573596 C-79.90385895 207.64822911 -79.90835593 189.03910815 -79.90542282 170.42997406 C-79.90390124 159.37285856 -79.90796103 148.31577791 -79.92001515 137.2586687 C-79.92751952 129.8704389 -79.92774412 122.4822319 -79.92208369 115.09400053 C-79.91906688 110.88564269 -79.91918271 106.67735072 -79.92818643 102.46899997 C-79.9363288 98.63401424 -79.93511271 94.7991453 -79.92670002 90.96416119 C-79.92461692 88.94846898 -79.93227822 86.9327737 -79.94043702 84.91709691 C-79.8489527 60.00206445 -72.53345811 39.6497495 -55.30342007 21.44672108 C-40.29593414 7.01514319 -20.56886962 -0.03438925 0 0 Z " fill="#4D669A" transform="translate(216.6784200668335,38.86577892303467)"/>
<path d="M0 0 C0.96129964 -0.00235223 1.92259929 -0.00470446 2.91302922 -0.00712797 C6.14105666 -0.01379621 9.36904364 -0.01336041 12.59707737 -0.01294994 C14.93205484 -0.01624988 17.26703175 -0.01997573 19.60200793 -0.02409142 C25.35054716 -0.033054 31.09907663 -0.03733658 36.8476221 -0.03961039 C43.73396317 -0.04257676 50.62029408 -0.05127652 57.50662981 -0.06002467 C74.14702878 -0.08084884 90.7874295 -0.09133441 107.42783845 -0.10015428 C115.2991919 -0.10436239 123.17054459 -0.10958405 131.04189739 -0.11483881 C157.98583338 -0.13272437 184.92976959 -0.1477218 211.87371063 -0.155159 C213.56452844 -0.15563375 215.25534624 -0.15610964 216.94616405 -0.15658666 C217.78465111 -0.15682303 218.62313816 -0.15705941 219.48703392 -0.15730295 C223.73518663 -0.15850414 227.98333934 -0.1597196 232.23149204 -0.16094494 C233.07454673 -0.16118509 233.91760142 -0.16142524 234.78620322 -0.16167267 C262.13554852 -0.16957004 289.48485052 -0.19301326 316.8341769 -0.22550088 C345.74975673 -0.25978636 374.6653112 -0.27950877 403.5809117 -0.28280324 C406.75397973 -0.28322078 409.92704776 -0.28370034 413.10011578 -0.28422642 C413.88141406 -0.28434961 414.66271235 -0.2844728 415.46768634 -0.28459973 C428.04731651 -0.28693292 440.62689639 -0.30259905 453.20650863 -0.32306826 C465.84510923 -0.34330763 478.48364932 -0.34881245 491.12226313 -0.33929763 C497.9707864 -0.33453601 504.81916043 -0.3361983 511.66766071 -0.35605907 C517.93404257 -0.37359803 524.20014042 -0.37276849 530.46652491 -0.35716178 C532.73629837 -0.35477164 535.00609103 -0.35918148 537.27583503 -0.37099043 C540.35667705 -0.38602961 543.43650238 -0.3764915 546.51731873 -0.36076355 C547.4023612 -0.37098576 548.28740368 -0.38120796 549.19926563 -0.39173993 C555.6162408 -0.32004499 561.03420704 1.09590548 565.84920001 5.5461059 C571.33821177 11.76121974 571.60878521 17.25002157 571.54863071 25.15692616 C571.54892277 26.16227406 571.54921482 27.16762196 571.54951572 28.20343494 C571.54812446 31.52029576 571.5325726 34.83693084 571.51689243 38.15375233 C571.51316159 40.45589036 571.51031495 42.75802998 571.50831699 45.06017017 C571.5006862 51.11496851 571.48104236 57.16967066 571.45890903 63.22443104 C571.43843875 69.40463428 571.42931274 75.58485307 571.41923618 81.76508045 C571.39779604 93.88816955 571.36366668 106.01118731 571.32157993 118.13422108 C572.34364536 118.12533863 573.36571079 118.11645618 574.4187479 118.10730457 C584.06998394 118.02607391 593.72115025 117.96618626 603.3726511 117.92697239 C608.33412565 117.90613405 613.29532331 117.87788512 618.25663853 117.83246326 C623.04827169 117.78887145 627.8396392 117.76505575 632.63145542 117.7547121 C634.45583875 117.74734463 636.28020822 117.73295768 638.10447788 117.71130085 C640.66804552 117.68208907 643.2305278 117.6782724 645.79423618 117.68011951 C646.54158527 117.66573841 647.28893436 117.65135731 648.0589304 117.63654041 C654.4057495 117.68573742 659.45293604 119.75845229 664.34501743 123.81000233 C665.01404087 124.62017811 665.01404087 124.62017811 665.69657993 125.44672108 C666.15806431 125.97910389 666.61954868 126.5114867 667.09501743 127.06000233 C671.13138823 133.88583956 670.60082765 141.3421304 670.56767559 149.02093124 C670.56998328 150.32905589 670.57229097 151.63718054 670.57466859 152.98494533 C670.5808015 156.62109497 670.57446072 160.25713263 670.56611232 163.89327392 C670.55924058 167.84705011 670.56398615 171.800815 670.5672673 175.75459343 C670.57141504 182.6856506 670.56812677 189.61667345 670.55999088 196.54772663 C670.54792669 206.85396293 670.54731873 217.16017756 670.54907486 227.46641963 C670.55170355 244.80268367 670.54501645 262.13893247 670.53304005 279.47519207 C670.52121041 296.64296449 670.51350904 313.81073057 670.51133442 330.97850704 C670.51119694 332.04551288 670.51105946 333.11251873 670.51091782 334.21185808 C670.51024116 339.63052995 670.50963839 345.04920182 670.50906406 350.4678737 C670.50486202 388.85918327 670.49138391 427.25048454 670.47245884 465.64178944 C670.45409335 502.94094263 670.43992447 540.24009356 670.43144321 577.53925037 C670.43118016 578.68875274 670.43091711 579.83825511 670.43064609 581.02259089 C670.42800907 592.56625147 670.42545744 604.10991208 670.42296837 615.65357269 C670.41789579 639.16983244 670.41225329 662.68609204 670.40626621 686.20235157 C670.40599163 687.28361701 670.40571705 688.36488245 670.40543415 689.47891351 C670.38702944 761.69735282 670.35533864 833.91578752 670.32157993 906.13422108 C671.87347019 906.11756649 671.87347019 906.11756649 673.45671177 906.10057545 C683.22564166 905.99904276 692.99446393 905.92418062 702.76380253 905.87516022 C707.78589023 905.84911056 712.80755062 905.81379726 717.82939243 905.75702381 C722.67939525 905.70253866 727.52898807 905.67276572 732.37927341 905.65983486 C734.22600855 905.65062455 736.07272224 905.63263874 737.91928196 905.60557079 C740.51415385 905.56906009 743.10735026 905.56428476 745.70243931 905.56659412 C746.45913914 905.54861774 747.21583897 905.53064137 747.99546909 905.51212025 C753.86029331 905.56828017 757.73531419 907.5340429 762.32157993 911.13422108 C767.40320311 916.48329811 768.80682321 921.31650349 768.63407993 928.57172108 C767.95974718 934.10124962 765.53071578 938.33403737 761.38407993 942.00922108 C756.45981711 945.42605651 752.81932773 946.38416227 746.83637398 946.38722074 C746.19488197 946.39027384 745.55338996 946.39332693 744.8924588 946.39647255 C742.73593856 946.40428625 740.57969751 946.3978351 738.42317581 946.39148998 C736.85759559 946.39418252 735.29201667 946.39774987 733.72644022 946.40211445 C729.40278228 946.41160107 725.07920827 946.40856257 720.75554612 946.40355891 C716.05983787 946.40030108 711.36414789 946.40856746 706.66844541 946.41537726 C698.43140477 946.42570153 690.19438766 946.42851685 681.95734119 946.42646503 C669.70865474 946.42342134 657.45999441 946.43172496 645.21131303 946.44221429 C622.06491732 946.46158153 598.91853045 946.46718352 575.77212759 946.4683284 C557.9014114 946.46924657 540.03069869 946.47335846 522.15998363 946.47972965 C517.02076016 946.48152467 511.88153669 946.48330429 506.74231321 946.48507941 C504.82601763 946.48574255 504.82601763 946.48574255 502.87100901 946.48641909 C466.92424343 946.49873179 430.97747967 946.50663156 395.03071213 946.50573254 C393.66104731 946.50570098 392.29138249 946.50566951 390.92171767 946.50563812 C384.73767446 946.50549135 378.55363126 946.50531501 372.36958805 946.50513035 C369.61191671 946.5050481 366.85424538 946.50496781 364.09657404 946.50488772 C362.71630923 946.50484693 361.33604442 946.50480489 359.9557796 946.5047616 C316.30645897 946.50340099 272.65717077 946.51803717 229.00785923 946.54584217 C218.00999905 946.55284408 207.01213885 946.55978294 196.01427841 946.56637096 C194.99853743 946.56697959 194.99853743 946.56697959 193.96227643 946.5676005 C157.40989423 946.58937007 120.85751163 946.5933254 84.30512315 946.59191573 C79.16495661 946.59176646 74.02479007 946.59166905 68.88462353 946.59160709 C67.61892957 946.59158379 66.35323562 946.59156048 65.0491873 946.59153646 C44.65328083 946.59147484 24.25740169 946.60426352 3.86150335 946.62147162 C-16.62551136 946.63839949 -37.11248596 946.6404243 -57.59950379 946.62725298 C-69.77993903 946.61984487 -81.96025264 946.62357719 -94.14067507 946.64313766 C-102.2698458 946.65509237 -110.39892798 946.65259706 -118.52809457 946.63819666 C-123.16452347 946.63039541 -127.80071617 946.62899121 -132.43712888 946.64511137 C-136.65350917 946.65964326 -140.86945604 946.65582744 -145.08581687 946.63726363 C-146.60309635 946.63381563 -148.12040954 946.63709539 -149.6376547 946.64786605 C-165.74921025 946.75459585 -165.74921025 946.75459585 -172.18466644 940.72234716 C-176.95387038 935.40654613 -178.1568453 930.66558096 -177.99092007 923.69672108 C-177.31262269 918.13468259 -174.88114779 913.91794089 -170.67842007 910.25922108 C-165.43474183 906.544949 -161.93457424 905.84729082 -155.513381 905.9071703 C-154.69349697 905.90687824 -153.87361294 905.90658619 -153.02888393 905.90628529 C-150.3234127 905.90767676 -147.6182181 905.92322938 -144.91279507 905.93890858 C-143.03521278 905.94263935 -141.15762854 905.94548602 -139.2800436 905.94748402 C-134.34149189 905.95511537 -129.40305806 905.97475962 -124.46455288 905.99689198 C-119.423879 906.0173611 -114.38318604 906.02648802 -109.34248257 906.03656483 C-99.45440998 906.05800595 -89.56642483 906.09213593 -79.67842007 906.13422108 C-79.67888801 905.05407709 -79.67888801 905.05407709 -79.6793654 903.95211201 C-79.71325697 825.55677258 -79.74466797 747.1614323 -79.76310635 668.76608753 C-79.76338246 667.5951187 -79.76365857 666.42414986 -79.76394306 665.21769712 C-79.76992882 639.76962711 -79.77546919 614.32155702 -79.78055073 588.87348681 C-79.78304541 576.3938292 -79.78563851 563.91417162 -79.78828335 551.43451405 C-79.78854487 550.19263555 -79.78880638 548.95075706 -79.78907583 547.67124588 C-79.79759911 507.41559435 -79.81262217 467.15994843 -79.83101451 426.90430029 C-79.8498801 385.53773237 -79.86219105 344.17116756 -79.86625005 302.80459541 C-79.86682636 296.96237432 -79.86747763 291.12015324 -79.86817455 285.27793217 C-79.86837682 283.55317625 -79.86837682 283.55317625 -79.86858318 281.79357678 C-79.87094696 263.28149988 -79.88022405 244.76943258 -79.89208413 226.2573596 C-79.90385895 207.64822911 -79.90835593 189.03910815 -79.90542282 170.42997406 C-79.90390124 159.37285856 -79.90796103 148.31577791 -79.92001515 137.2586687 C-79.92751952 129.8704389 -79.92774412 122.4822319 -79.92208369 115.09400053 C-79.91906688 110.88564269 -79.91918271 106.67735072 -79.92818643 102.46899997 C-79.9363288 98.63401424 -79.93511271 94.7991453 -79.92670002 90.96416119 C-79.92461692 88.94846898 -79.93227822 86.9327737 -79.94043702 84.91709691 C-79.8489527 60.00206445 -72.53345811 39.6497495 -55.30342007 21.44672108 C-40.29593414 7.01514319 -20.56886962 -0.03438925 0 0 Z M-39.67842007 147.13422108 C-39.67842007 397.60422108 -39.67842007 648.07422108 -39.67842007 906.13422108 C181.42157993 906.13422108 402.52157993 906.13422108 630.32157993 906.13422108 C630.32157993 659.29422108 630.32157993 412.45422108 630.32157993 158.13422108 C420.08819508 157.96367357 420.08819508 157.96367357 209.85478306 157.83636951 C169.23857212 157.79095936 169.23857212 157.79095936 150.23796177 157.76465321 C136.06172305 157.74649238 121.88553907 157.74152158 107.70929093 157.74294433 C93.24846766 157.74407076 78.78771517 157.73026866 64.32691881 157.70218219 C55.73276845 157.68592643 47.13877831 157.68038605 38.54461848 157.69122699 C32.86287069 157.69730388 27.18126268 157.68882824 21.49954757 157.66872094 C18.26795496 157.65769373 15.03675432 157.6550043 11.80515099 157.66570997 C-8.14235711 157.72606297 -21.23557276 155.64630445 -39.67842007 147.13422108 Z " fill="#000000" transform="translate(216.6784200668335,38.86577892303467)"/>
<path d="M0 0 C9.02321849 4.61322207 13.38337612 15.85462991 17.82879639 24.40856934 C19.3196411 27.2770448 20.82591762 30.13731913 22.33132935 32.99816895 C23.08785582 34.43615991 23.84361726 35.87455363 24.59860229 37.31335449 C27.7338635 43.28519825 30.93211737 49.22087571 34.171875 55.13671875 C34.64093262 55.99507324 35.10999023 56.85342773 35.59326172 57.73779297 C38.03787238 62.20294047 40.50118244 66.6573086 42.9765625 71.10546875 C43.4917041 72.03391602 44.0068457 72.96236328 44.53759766 73.91894531 C45.52039095 75.68867274 46.50686143 77.45636471 47.49755859 79.22167969 C47.93148926 80.00317383 48.36541992 80.78466797 48.8125 81.58984375 C49.19696289 82.27723633 49.58142578 82.96462891 49.97753906 83.67285156 C50.796875 85.38671875 50.796875 85.38671875 50.796875 87.38671875 C52.04666641 87.3778363 53.29645782 87.36895386 54.5841217 87.35980225 C66.36952273 87.27867081 78.15486699 87.21873127 89.94048405 87.17947006 C95.99942234 87.15860681 102.05813495 87.13031161 108.11694336 87.08496094 C113.96543531 87.04145909 119.81371034 87.01757214 125.66235161 87.00720978 C127.89226126 86.99982628 130.12215922 86.98540802 132.35197639 86.96379852 C135.47848166 86.93470761 138.60409378 86.93076523 141.73071289 86.93261719 C142.64997055 86.91823608 143.56922821 86.90385498 144.51634216 86.88903809 C151.19525241 86.93176884 155.42620835 88.37085911 160.50390625 92.9140625 C164.56663113 98.09654901 166.27363285 102.00984124 166.20581055 108.69067383 C165.35151866 114.32287996 162.26446702 119.14393673 159.546875 124.07421875 C158.90132379 125.276573 158.25738508 126.47979429 157.61499023 127.68383789 C155.69799688 131.26390572 153.74864258 134.82549203 151.796875 138.38671875 C150.77130737 140.2768947 149.74649945 142.16748317 148.72265625 144.05859375 C146.80480987 147.59181066 144.8746347 151.11795116 142.9375 154.640625 C140.60916114 158.88452451 138.31195331 163.14441863 136.03125 167.4140625 C135.70857147 168.01787247 135.38589294 168.62168243 135.05343628 169.24378967 C133.42847976 172.28625769 131.80712147 175.33058896 130.18994141 178.37719727 C127.47233961 183.47846729 124.74320919 188.55210004 121.7734375 193.51171875 C121.11927856 194.61314209 121.11927856 194.61314209 120.4519043 195.73681641 C119.67194836 197.03397993 118.87528501 198.32132984 118.05786133 199.59521484 C116.37961354 202.38973762 115.72411051 203.94273206 116.2578125 207.19921875 C118.3606186 211.55426894 120.62621954 215.79001367 122.984375 220.01171875 C124.07655992 221.9903122 125.16765428 223.96950792 126.2578125 225.94921875 C126.83499023 226.9959375 127.41216797 228.04265625 128.00683594 229.12109375 C131.08119836 234.72975056 134.09465485 240.37084237 137.109375 246.01171875 C137.73841982 247.18832674 138.36748896 248.36492172 138.99658203 249.54150391 C139.95343905 251.33112244 140.91024988 253.12076545 141.86679077 254.91055298 C144.19635622 259.26809655 146.53429696 263.62108716 148.875 267.97265625 C149.88004214 269.84276529 150.88492429 271.7129602 151.88973999 273.58319092 C152.82485422 275.32250986 153.76163843 277.06093065 154.69848633 278.79931641 C157.56979952 284.14650441 160.41174125 289.50878157 163.1875 294.90625 C163.67379883 295.84831299 164.16009766 296.79037598 164.66113281 297.76098633 C166.39707966 301.77433721 166.82453499 305.13803493 165.796875 309.38671875 C163.24850111 315.7887312 159.91941537 320.21628137 153.74983215 323.46444702 C149.51004361 324.78862374 145.46764437 324.69515978 141.04956055 324.70556641 C140.07347336 324.71561203 139.09738617 324.72565765 138.09172058 324.73600769 C134.87235084 324.76684523 131.65306429 324.78387659 128.43359375 324.80078125 C126.19870793 324.81949242 123.96382917 324.83906579 121.72895813 324.85946655 C115.85179816 324.91079905 109.97461528 324.95041893 104.09735107 324.98760986 C98.09804614 325.02764239 92.0988366 325.07873819 86.09960938 325.12890625 C74.33209824 325.22567885 62.56453327 325.31007949 50.796875 325.38671875 C50.28498627 326.35514709 49.77309753 327.32357544 49.24569702 328.3213501 C47.31664918 331.97045158 45.38675875 335.61910692 43.45663452 339.26763916 C42.62694266 340.83628693 41.79746875 342.40505 40.9682312 343.97393799 C35.26011805 354.77302438 29.5056316 365.54217071 23.61328125 376.2421875 C21.56945666 379.95803531 19.56401792 383.69244975 17.57421875 387.4375 C16.76766846 388.94521973 16.76766846 388.94521973 15.94482422 390.48339844 C14.91981122 392.40083883 13.90143484 394.32184833 12.89111328 396.24707031 C9.10316933 403.3008469 4.65909528 409.5636049 -3.203125 412.38671875 C-9.18280916 413.24095934 -14.09965749 412.82859219 -19.203125 409.38671875 C-22.73762596 406.12756047 -25.24799366 403.01954912 -27.578125 398.82421875 C-27.90280762 398.2425293 -28.22749023 397.66083984 -28.56201172 397.06152344 C-33.90055908 387.42307515 -39.04418212 377.67486282 -44.22993469 367.95352173 C-47.72606197 361.40191532 -51.24408027 354.86219583 -54.765625 348.32421875 C-55.32459473 347.28555664 -55.88356445 346.24689453 -56.45947266 345.17675781 C-56.99491699 344.18256836 -57.53036133 343.18837891 -58.08203125 342.1640625 C-58.5416626 341.31062256 -59.00129395 340.45718262 -59.47485352 339.57788086 C-62.03997776 334.84151428 -64.62209508 330.11443209 -67.203125 325.38671875 C-68.44260895 325.38085251 -69.6820929 325.37498627 -70.95913696 325.36894226 C-82.64201492 325.31172104 -94.32470663 325.2389623 -106.00739479 325.15100384 C-112.01354251 325.10628284 -118.01962212 325.06703031 -124.02587891 325.0402832 C-129.82261418 325.01426781 -135.61908761 324.97387737 -141.41566086 324.92353249 C-143.62679156 324.90685194 -145.83796756 324.89534508 -148.04915237 324.88910484 C-151.14714231 324.87947693 -154.24446056 324.85143237 -157.34228516 324.8190918 C-158.71253845 324.82124443 -158.71253845 324.82124443 -160.11047363 324.82344055 C-166.58962807 324.72783023 -170.74869911 323.43207366 -175.828125 319.19921875 C-180.2865001 313.91956402 -182.51558562 309.59095648 -182.43925476 302.54725647 C-182.04813419 298.96858537 -180.45736833 296.02764704 -178.75 292.92578125 C-178.39008972 292.24061432 -178.03017944 291.55544739 -177.65936279 290.84951782 C-176.90060522 289.4090259 -176.13472114 287.97226714 -175.36206055 286.53918457 C-174.24052148 284.45617442 -173.14095337 282.36320526 -172.04882812 280.26464844 C-169.87096562 276.08592879 -167.66439179 271.92283577 -165.453125 267.76171875 C-165.06227722 267.02481812 -164.67142944 266.28791748 -164.26873779 265.52868652 C-159.50090996 256.53972563 -154.70450391 247.56738288 -149.828125 238.63671875 C-149.36680176 237.78843506 -148.90547852 236.94015137 -148.43017578 236.06616211 C-145.91594503 231.45880985 -143.34937043 226.88692431 -140.734375 222.3359375 C-140.16509277 221.33079102 -139.59581055 220.32564453 -139.00927734 219.29003906 C-137.91534466 217.36016769 -136.80698085 215.43838192 -135.68212891 213.52636719 C-135.19663574 212.66430664 -134.71114258 211.80224609 -134.2109375 210.9140625 C-133.77410645 210.15859131 -133.33727539 209.40312012 -132.88720703 208.62475586 C-131.94396724 205.53886036 -132.76475467 204.2216079 -134.203125 201.38671875 C-134.57872559 200.61787354 -134.95432617 199.84902832 -135.34130859 199.05688477 C-135.75719238 198.25951904 -136.17307617 197.46215332 -136.6015625 196.640625 C-137.07440674 195.7328833 -137.54725098 194.8251416 -138.03442383 193.88989258 C-138.54384521 192.91947021 -139.0532666 191.94904785 -139.578125 190.94921875 C-140.11268311 189.92787842 -140.64724121 188.90653809 -141.19799805 187.85424805 C-145.21724536 180.20170959 -149.32723143 172.60192552 -153.4831543 165.02294922 C-158.31848563 156.20028836 -163.08908217 147.34319827 -167.81396484 138.4609375 C-170.54694015 133.32690414 -173.28635962 128.20355654 -176.15625 123.14453125 C-176.58333252 122.37923096 -177.01041504 121.61393066 -177.45043945 120.82543945 C-178.20691009 119.47403375 -178.97741008 118.13031418 -179.76635742 116.79760742 C-182.41808392 112.00862969 -182.90299474 107.72860677 -182.203125 102.38671875 C-180.15004295 96.11193118 -176.53546802 92.18240134 -171.203125 88.38671875 C-168.9092089 87.2397607 -167.63975351 87.26333223 -165.09030151 87.26646423 C-164.22930847 87.26508957 -163.36831543 87.2637149 -162.48123169 87.26229858 C-161.06135452 87.2676915 -161.06135452 87.2676915 -159.61279297 87.27319336 C-158.61763672 87.27304733 -157.62248047 87.27290131 -156.59716797 87.27275085 C-153.29652757 87.27344944 -149.99594308 87.28123931 -146.6953125 87.2890625 C-144.41130606 87.29092687 -142.12729922 87.29235068 -139.84329224 87.29335022 C-133.82300722 87.29717388 -127.80274621 87.30700289 -121.7824707 87.3180542 C-115.64274419 87.32827157 -109.50301381 87.33284854 -103.36328125 87.33789062 C-91.30988527 87.34862527 -79.25650713 87.3656999 -67.203125 87.38671875 C-66.89561813 86.44325592 -66.58811127 85.49979309 -66.27128601 84.52774048 C-65.34066083 81.79115499 -64.31110252 79.48667922 -62.91015625 76.97265625 C-62.22385132 75.72959717 -62.22385132 75.72959717 -61.52368164 74.46142578 C-61.02602295 73.57052246 -60.52836426 72.67961914 -60.015625 71.76171875 C-58.92601215 69.7883515 -57.83752433 67.81436275 -56.75 65.83984375 C-56.17314453 64.79376953 -55.59628906 63.74769531 -55.00195312 62.66992188 C-52.20278033 57.56089965 -49.45741813 52.42343175 -46.71350098 47.28457642 C-45.76416771 45.50899312 -44.81175951 43.73509343 -43.85839844 41.96166992 C-40.74528009 36.16683672 -37.66252965 30.3588134 -34.640625 24.515625 C-34.07142334 23.42942871 -33.50222168 22.34323242 -32.91577148 21.22412109 C-31.85213625 19.19378795 -30.80114661 17.15675483 -29.76586914 15.11181641 C-23.29053343 2.84310002 -14.36007925 -3.99739795 0 0 Z " fill="#000000" transform="translate(520.203125,355.61328125)"/>
<path d="M0 0 C2.24187675 -0.00218223 4.48375225 -0.00656352 6.72562099 -0.01294583 C12.86692475 -0.02409887 19.00779056 -0.00416322 25.14903855 0.02094448 C31.09729473 0.0403467 37.04552165 0.03613862 42.99379798 0.03253527 C55.15534014 0.02597872 67.31674607 0.04262333 79.4782486 0.0726223 C91.51466802 0.10223643 103.55103067 0.12145787 115.58748627 0.12688637 C116.71126937 0.12740192 116.71126937 0.12740192 117.85775515 0.12792788 C121.6627119 0.12961961 125.46766869 0.1311265 129.27262554 0.13256226 C156.20309021 0.14305633 183.13348083 0.17672078 210.06390381 0.22407532 C236.22177741 0.27001822 262.37963073 0.30542611 288.53753662 0.32661438 C289.34424256 0.32727201 290.15094849 0.32792964 290.98210006 0.3286072 C299.08358383 0.33519996 307.18506776 0.34157901 315.28655182 0.3478015 C331.78930223 0.36048159 348.29205132 0.37458785 364.7947998 0.38955688 C365.93288285 0.39058656 365.93288285 0.39058656 367.09395747 0.39163704 C417.73550245 0.43761815 468.37699803 0.51798537 519.01849365 0.60127258 C519.01849365 26.67127258 519.01849365 52.74127258 519.01849365 79.60127258 C467.89661646 79.66891095 416.77474134 79.73343654 365.65283203 79.77064514 C364.89604992 79.77119737 364.13926781 79.7717496 363.3595529 79.77231856 C346.9121079 79.78429057 330.46466241 79.79537124 314.01721619 79.8055339 C305.95123565 79.81052319 297.88525525 79.81570941 289.8192749 79.82099915 C289.01661864 79.82152218 288.21396238 79.82204522 287.3869832 79.8225841 C261.37686847 79.8396254 235.36678852 79.86966759 209.35669486 79.90646147 C182.6249494 79.94420745 155.89322318 79.96881798 129.16145152 79.97693254 C125.38461438 79.97808514 121.60777731 79.97938769 117.83094025 79.98078156 C116.71595142 79.98118609 116.71595142 79.98118609 115.57843757 79.9815988 C103.61940615 79.9863232 91.66043429 80.00486877 79.70142715 80.02860072 C67.67466004 80.05217154 55.6479519 80.06113904 43.6211625 80.05527809 C37.10636259 80.05250612 30.5917032 80.05666665 24.076931 80.07809448 C18.1104468 80.09757561 12.14425452 80.09853209 6.17775682 80.08486816 C4.02142788 80.08317966 1.86508064 80.08824031 -0.29121235 80.10080531 C-16.47182074 80.1895951 -29.46744399 78.99025362 -41.98150635 67.60127258 C-49.05652183 59.90817954 -52.95569401 50.04967256 -53.48150635 39.60127258 C-53.00568227 29.8627398 -49.71089112 20.67691205 -42.98150635 13.60127258 C-42.33310791 12.91291321 -41.68470947 12.22455383 -41.0166626 11.51533508 C-28.94745917 -0.22649393 -15.8417879 -0.11473921 0 0 Z " fill="#222A3E" transform="translate(229.98150634765625,78.39872741699219)"/>
<path d="M0 0 C2.97390747 -0.36076355 2.97390747 -0.36076355 6.83642578 -0.34057617 C7.53897491 -0.34101425 8.24152405 -0.34145233 8.96536255 -0.34190369 C11.29229326 -0.33981021 13.61850736 -0.31645395 15.9453125 -0.29296875 C17.55670783 -0.28737476 19.16810825 -0.28310373 20.7795105 -0.28010559 C25.0244145 -0.26864126 29.26901142 -0.23916068 33.51379395 -0.20599365 C37.84378912 -0.17532682 42.17383382 -0.16160752 46.50390625 -0.14648438 C55.00274521 -0.11429227 63.50133443 -0.06307704 72 0 C78.50081403 11.89414615 84.99367315 23.79121342 91.375 35.75 C92.6349359 38.11093568 93.89512529 40.47173086 95.15625 42.83203125 C95.47036835 43.41996964 95.78448669 44.00790802 96.10812378 44.61366272 C98.3933564 48.88375868 100.707497 53.13748768 103.03125 57.38671875 C103.68327499 58.58291543 104.33513317 59.77920304 104.98681641 60.97558594 C106.21809246 63.23308457 107.45450784 65.48779 108.69677734 67.73925781 C109.52363037 69.2585791 109.52363037 69.2585791 110.3671875 70.80859375 C110.85300293 71.69345459 111.33881836 72.57831543 111.83935547 73.48999023 C113.06066962 76.13120411 113.80785439 78.09116793 114 81 C112.95874023 83.7253418 112.95874023 83.7253418 111.30859375 86.69921875 C110.70063965 87.81264648 110.09268555 88.92607422 109.46630859 90.07324219 C108.79020669 91.27808887 108.11393263 92.48283896 107.4375 93.6875 C106.74675949 94.94223663 106.05748937 96.19778375 105.36962891 97.45410156 C103.95088791 100.04183478 102.52525127 102.62557701 101.09423828 105.20654297 C97.96622553 110.85805485 94.92540305 116.55635352 91.875 122.25 C85.27892901 134.51564983 78.63308184 146.75431045 72 159 C48.24 159 24.48 159 0 159 C-2.7225 153.84375 -5.445 148.6875 -8.25 143.375 C-13.57522091 133.3060313 -18.91064824 123.24439402 -24.375 113.25 C-24.83640381 112.40300537 -25.29780762 111.55601074 -25.77319336 110.68334961 C-28.28692893 106.08198783 -30.84257168 101.50753846 -33.43359375 96.94921875 C-34.28074951 95.44149902 -34.28074951 95.44149902 -35.14501953 93.90332031 C-36.22902306 91.97528592 -37.32446893 90.05362475 -38.43310547 88.13964844 C-38.91537598 87.27758789 -39.39764648 86.41552734 -39.89453125 85.52734375 C-40.32612549 84.77187256 -40.75771973 84.01640137 -41.20239258 83.23803711 C-42.49232592 79.6185639 -41.47872017 77.08849812 -39.9753418 73.67016602 C-39.55422119 72.87280029 -39.13310059 72.07543457 -38.69921875 71.25390625 C-37.98511841 69.8922937 -37.98511841 69.8922937 -37.2565918 68.50317383 C-36.7387915 67.53275146 -36.22099121 66.5623291 -35.6875 65.5625 C-35.14843018 64.54115967 -34.60936035 63.51981934 -34.05395508 62.4675293 C-30.01119882 54.83291021 -25.89195292 47.24027061 -21.7355957 39.66699219 C-18.78782783 34.29343196 -15.86944213 28.90533069 -12.98046875 23.5 C-12.46860268 22.54241035 -12.46860268 22.54241035 -11.94639587 21.56547546 C-10.26155381 18.41188495 -8.57921542 15.25697824 -6.89916992 12.10083008 C-6.29049072 10.96025146 -5.68181152 9.81967285 -5.0546875 8.64453125 C-4.51312012 7.62721924 -3.97155273 6.60990723 -3.41357422 5.56176758 C-2 3 -2 3 0 0 Z " fill="#E1B13A" transform="translate(476,482)"/>
<path d="M0 0 C13.2 0 26.4 0 40 0 C40 13.2 40 26.4 40 40 C26.8 40 13.6 40 0 40 C0 26.8 0 13.6 0 0 Z " fill="#020304" transform="translate(610,866)"/>
<path d="M0 0 C13.2 0 26.4 0 40 0 C40 13.2 40 26.4 40 40 C26.8 40 13.6 40 0 40 C0 26.8 0 13.6 0 0 Z " fill="#020304" transform="translate(374,866)"/>
<path d="M0 0 C13.2 0 26.4 0 40 0 C40 13.2 40 26.4 40 40 C26.8 40 13.6 40 0 40 C0 26.8 0 13.6 0 0 Z " fill="#020304" transform="translate(610,236)"/>
<path d="M0 0 C13.2 0 26.4 0 40 0 C40 13.2 40 26.4 40 40 C26.8 40 13.6 40 0 40 C0 26.8 0 13.6 0 0 Z " fill="#020304" transform="translate(374,236)"/>
<path d="M0 0 C12.87 0 25.74 0 39 0 C39 13.2 39 26.4 39 40 C26.13 40 13.26 40 0 40 C0 26.8 0 13.6 0 0 Z " fill="#010102" transform="translate(532,236)"/>
<path d="M0 0 C12.87 0 25.74 0 39 0 C39 13.2 39 26.4 39 40 C26.13 40 13.26 40 0 40 C0 26.8 0 13.6 0 0 Z " fill="#010102" transform="translate(453,236)"/>
<path d="M0 0 C12.87 0 25.74 0 39 0 C39 12.87 39 25.74 39 39 C26.13 39 13.26 39 0 39 C0 26.13 0 13.26 0 0 Z " fill="#000000" transform="translate(532,867)"/>
<path d="M0 0 C12.87 0 25.74 0 39 0 C39 12.87 39 25.74 39 39 C26.13 39 13.26 39 0 39 C0 26.13 0 13.26 0 0 Z " fill="#000000" transform="translate(453,867)"/>
<path d="M0 0 C3.29650166 2.7678781 5.01606027 6.44077483 6.9765625 10.1875 C7.34727875 10.88641357 7.717995 11.58532715 8.09994507 12.30541992 C8.88074165 13.78004526 9.65889413 15.25607327 10.43457031 16.73339844 C11.62224981 18.99476359 12.81820603 21.25159202 14.015625 23.5078125 C14.77392696 24.94244973 15.53175565 26.37733723 16.2890625 27.8125 C16.6463443 28.48756592 17.0036261 29.16263184 17.37173462 29.8581543 C18.78241274 32.54964581 20.03710188 35.11130564 21 38 C7.47 38 -6.06 38 -20 38 C-15.28282539 28.56565079 -10.59080152 19.22058438 -5.5 10 C-4.695625 8.53433594 -4.695625 8.53433594 -3.875 7.0390625 C-2.58599285 4.69122804 -1.29435728 2.34488774 0 0 Z " fill="#F6CA4A" transform="translate(612,603)"/>
<path d="M0 0 C2.58880534 3.23994702 4.52008855 6.64803803 6.46875 10.3046875 C6.79033081 10.90628693 7.11191162 11.50788635 7.4432373 12.12771606 C8.46529384 14.04182419 9.4826097 15.95840841 10.5 17.875 C11.18330446 19.15510238 11.86689551 20.43505182 12.55078125 21.71484375 C15.43083466 27.114376 18.26277043 32.52554087 21 38 C7.47 38 -6.06 38 -20 38 C-17.75574651 32.38936627 -15.04879423 27.16092752 -12.25 21.8125 C-11.73695313 20.82185547 -11.22390625 19.83121094 -10.6953125 18.81054688 C-7.34845828 12.39854601 -3.79619873 6.15652516 0 0 Z " fill="#F6CA4A" transform="translate(411,603)"/>
<path d="M0 0 C13.2 0 26.4 0 40 0 C30.57775591 18.84448819 30.57775591 18.84448819 26.125 26.9375 C25.65320313 27.81083984 25.18140625 28.68417969 24.6953125 29.58398438 C24.0146875 30.82438477 24.0146875 30.82438477 23.3203125 32.08984375 C22.72114014 33.18607056 22.72114014 33.18607056 22.10986328 34.30444336 C21 36 21 36 19 37 C18.56655273 36.18845459 18.13310547 35.37690918 17.68652344 34.54077148 C16.06216195 31.50062833 14.43689605 28.46097222 12.81103516 25.42163086 C12.11048247 24.11160055 11.41028009 22.80138285 10.71044922 21.4909668 C9.69853578 19.59633572 8.68532146 17.70240516 7.671875 15.80859375 C6.76066895 14.10401001 6.76066895 14.10401001 5.83105469 12.36499023 C4.51456044 9.94562486 3.16529775 7.57222264 1.77050781 5.19946289 C0 2 0 2 0 0 Z " fill="#FBCF4C" transform="translate(593,482)"/>
<path d="M0 0 C13.2 0 26.4 0 40 0 C38.60323334 4.19029997 37.42977269 7.32941035 35.35546875 11.08203125 C34.84306641 12.01466797 34.33066406 12.94730469 33.80273438 13.90820312 C33.26970703 14.86662109 32.73667969 15.82503906 32.1875 16.8125 C31.66607422 17.75931641 31.14464844 18.70613281 30.60742188 19.68164062 C29.07714626 22.45753384 27.53987564 25.22942259 26 28 C25.5045166 28.89251465 25.0090332 29.7850293 24.49853516 30.70458984 C23.33305115 32.80344702 22.16689622 34.90192774 21 37 C17.80788887 34.08223788 15.86905661 31.26496401 13.90625 27.421875 C13.07287109 25.80345703 13.07287109 25.80345703 12.22265625 24.15234375 C11.65417969 23.02957031 11.08570313 21.90679687 10.5 20.75 C9.93152344 19.64269531 9.36304688 18.53539062 8.77734375 17.39453125 C5.81495929 11.61410125 2.90489152 5.80978304 0 0 Z " fill="#FBCF4C" transform="translate(391,482)"/>
<path d="M0 0 C3.86069696 1.28689899 4.0871084 2.50378681 5.91796875 6.05859375 C6.44970703 7.08404297 6.98144531 8.10949219 7.52929688 9.16601562 C8.07650391 10.24560547 8.62371094 11.32519531 9.1875 12.4375 C9.74630859 13.51322266 10.30511719 14.58894531 10.88085938 15.69726562 C15 23.70922047 15 23.70922047 15 26 C5.76 26 -3.48 26 -13 26 C-11.61162949 21.83488847 -10.4715959 18.75146242 -8.3984375 15.0390625 C-7.90859375 14.15605469 -7.41875 13.27304687 -6.9140625 12.36328125 C-6.15222656 11.00783203 -6.15222656 11.00783203 -5.375 9.625 C-4.6015625 8.23474609 -4.6015625 8.23474609 -3.8125 6.81640625 C-2.54617189 4.54170575 -1.27524075 2.26971208 0 0 Z " fill="#F1C749" transform="translate(511,417)"/>
<path d="M0 0 C9.24 0 18.48 0 28 0 C26.58409678 3.53975806 25.16394082 6.73578659 23.3984375 10.08203125 C22.90859375 11.01337891 22.41875 11.94472656 21.9140625 12.90429688 C21.40617188 13.86400391 20.89828125 14.82371094 20.375 15.8125 C19.859375 16.79154297 19.34375 17.77058594 18.8125 18.77929688 C17.5438591 21.18736525 16.27296034 23.594213 15 26 C14.34 26 13.68 26 13 26 C10.82658104 22.04533792 8.66241799 18.08568659 6.5 14.125 C5.87996094 12.99707031 5.25992187 11.86914062 4.62109375 10.70703125 C4.03457031 9.63066406 3.44804687 8.55429687 2.84375 7.4453125 C2.29912109 6.45031738 1.75449219 5.45532227 1.19335938 4.43017578 C0 2 0 2 0 0 Z " fill="#FACE4B" transform="translate(498,680)"/>
</svg>
