<?xml version="1.0"?><svg viewBox="0 0 60 60" xmlns="http://www.w3.org/2000/svg"><title/><g id="colour"><circle cx="34" cy="26" fill="#aaa" r="3"/><circle cx="25" cy="35" fill="#aaa" r="4"/><circle cx="15" cy="45" fill="#aaa" r="5"/><path d="M34.8598,23.1402A2.96733,2.96733,0,0,1,35,24a3,3,0,0,1-3,3,2.96733,2.96733,0,0,1-.8598-.1402,2.99178,2.99178,0,1,0,3.7196-3.7196Z" fill="#999"/><path d="M26.64038,31.35962a3.98591,3.98591,0,0,1-5.28076,5.28082,3.99528,3.99528,0,1,0,5.28076-5.28082Z" fill="#999"/><path d="M17.37457,40.62543A4.94433,4.94433,0,0,1,18,43a5,5,0,0,1-5,5,4.94433,4.94433,0,0,1-2.37457-.62543,4.984,4.984,0,1,0,6.74915-6.74915Z" fill="#999"/><path d="M37,25c-.18848-.252-1.75854-1.79883-2-2L47,13Z" fill="#999"/><path d="M26,31l5-4a8.28167,8.28167,0,0,0,2,2l-4,5A15.96275,15.96275,0,0,0,26,31Z" fill="#999"/><path d="M17,40l4-4a8.049,8.049,0,0,0,3,3l-4,4A7.8557,7.8557,0,0,0,17,40Z" fill="#999"/><path d="M12,53c-3.00843.25345-4.93456,3.10036-5.9829,5.98591l-5-5C3.9032,52.937,6.7471,51.00843,7,48l3-2a7.30936,7.30936,0,0,0,4,4Z" fill="#999"/></g><g data-name="Layer 1" id="Layer_1"><path d="M59.70459.29088A1.00131,1.00131,0,0,0,58.32422.26305L34.55011,22.056A3.941,3.941,0,0,0,34,22.00036a3.997,3.997,0,0,0-3.98486,3.85016l-4.63367,4.18842c-.12811-.00989-.25085-.03857-.38147-.03857a4.99988,4.99988,0,0,0-4.989,4.89154L15.441,39.02269c-.14618-.01068-.29218-.02234-.441-.02234a6.00291,6.00291,0,0,0-5.9917,5.83636L6.32959,47.25817A1.0007,1.0007,0,0,0,6,48.00036a5.49473,5.49473,0,0,1-5,5,.99991.99991,0,0,0-.707,1.707l5,5A.99991.99991,0,0,0,7,59.00036a5.49473,5.49473,0,0,1,5-5,1.00195,1.00195,0,0,0,.7417-.3291l2.42145-2.67914A6.00293,6.00293,0,0,0,21,45.00036c0-.14886-.0116-.29492-.02234-.4411l4.13025-4.56982A4.99992,4.99992,0,0,0,30,35.00036c0-.13049-.02863-.25305-.03851-.381l4.18842-4.63409A3.99689,3.99689,0,0,0,38,26.00036c0-.09-.02069-.17419-.02655-.2627L59.7417,1.67125A1.00005,1.00005,0,0,0,59.70459.29088Zm-48.1665,51.729a7.67271,7.67271,0,0,0-6.165,4.93945l-2.332-2.332a7.67167,7.67167,0,0,0,4.93945-6.165l1.43121-1.29376a6.023,6.023,0,0,0,3.42,3.4201ZM15,49.00036a4,4,0,1,1,4-4A4.00427,4.00427,0,0,1,15,49.00036Zm2.71991-9.34125,2.78217-2.51477a5.00956,5.00956,0,0,0,2.35376,2.35382l-2.51459,2.78223A6.03213,6.03213,0,0,0,17.71991,39.65911ZM25,38.00036a3,3,0,1,1,3-3A3.00328,3.00328,0,0,1,25,38.00036Zm2.58551-7.25793L30.577,28.03814a4.00463,4.00463,0,0,0,1.38525,1.38525l-2.70428,2.99146A5.00966,5.00966,0,0,0,27.58551,30.74242ZM34,28.00036a2,2,0,1,1,2-2A2.002,2.002,0,0,1,34,28.00036Zm3.19391-4.38269a4.012,4.012,0,0,0-.64868-.67706l7.382-6.7674Z"/></g></svg>